<?xml version="1.0" standalone="no"?>
<!DOCTYPE svg PUBLIC "-//W3C//DTD SVG 20010904//EN"
 "http://www.w3.org/TR/2001/REC-SVG-20010904/DTD/svg10.dtd">
<svg version="1.0" xmlns="http://www.w3.org/2000/svg"
 width="317.000000pt" height="315.000000pt" viewBox="0 0 317.000000 315.000000"
 preserveAspectRatio="xMidYMid meet">

<g transform="translate(0.000000,315.000000) scale(0.100000,-0.100000)"
fill="#000000" stroke="none">
<path d="M1385 3124 c-394 -59 -743 -250 -985 -538 -174 -208 -282 -432 -341
-706 -33 -152 -33 -448 0 -600 133 -622 589 -1085 1204 -1221 117 -26 408 -37
529 -20 450 65 837 308 1089 685 109 163 186 347 230 556 31 143 33 426 5 575
-59 315 -208 597 -436 825 -215 214 -464 350 -768 421 -69 16 -130 21 -292 24
-113 2 -218 1 -235 -1z m480 -95 c613 -123 1071 -595 1176 -1210 29 -168 23
-402 -14 -559 -67 -284 -197 -518 -397 -719 -580 -581 -1510 -581 -2090 0
-204 204 -336 448 -402 740 -20 89 -23 131 -23 299 0 168 3 210 23 299 94 420
339 759 705 977 162 96 399 174 591 194 115 12 314 2 431 -21z"/>
<path d="M1562 2883 l-40 -98 26 -3 c15 -2 31 3 38 12 15 21 84 22 84 1 0 -10
10 -15 30 -15 17 0 30 3 30 7 0 5 -14 50 -31 100 -30 92 -31 93 -63 93 -33 0
-34 -2 -74 -97z m85 -29 c-3 -4 -13 -4 -21 -1 -13 5 -13 12 -4 39 l12 33 9
-33 c6 -18 7 -35 4 -38z"/>
<path d="M1373 2962 c-7 -4 -16 -32 -21 -62 l-8 -55 -23 53 c-23 52 -24 52
-60 46 -20 -4 -38 -8 -40 -10 -8 -7 32 -194 43 -194 32 1 38 17 27 69 -17 79
-13 82 19 13 25 -54 33 -63 52 -60 21 3 23 10 28 73 5 74 13 68 26 -18 6 -43
9 -47 28 -41 11 4 22 8 24 9 2 1 -5 44 -14 94 -16 87 -18 91 -43 91 -14 0 -32
-4 -38 -8z"/>
<path d="M1824 2932 c-3 -15 -12 -52 -20 -83 -21 -85 -22 -83 57 -102 40 -10
73 -16 74 -15 1 2 5 13 9 25 6 19 2 22 -34 28 -22 4 -42 11 -45 16 -4 5 -1 35
5 66 15 74 14 77 -15 85 -21 5 -26 2 -31 -20z"/>
<path d="M1003 2855 l-53 -24 35 -81 c19 -45 38 -86 41 -91 4 -7 36 3 52 16 2
2 -4 19 -12 39 -14 34 -14 36 3 36 10 0 24 -7 31 -16 24 -28 47 -35 74 -22 14
6 26 14 26 18 0 3 -17 17 -39 30 -32 21 -36 28 -27 42 7 11 7 26 0 45 -13 38
-61 41 -131 8z m77 -40 c0 -8 -9 -19 -20 -25 -15 -8 -21 -6 -30 10 -9 17 -7
22 12 29 27 10 38 6 38 -14z"/>
<path d="M2186 2808 c-32 -51 -56 -104 -56 -123 1 -42 57 -85 111 -85 41 0 53
11 95 87 28 52 28 53 9 67 -11 9 -22 16 -25 16 -3 0 -20 -25 -38 -55 -38 -63
-45 -69 -72 -60 -28 9 -25 29 12 93 30 53 30 56 13 68 -26 19 -32 18 -49 -8z"/>
<path d="M794 2740 c-26 -10 -74 -66 -74 -86 0 -28 28 -82 51 -98 48 -33 126
-10 154 45 21 39 6 88 -36 124 -31 26 -58 30 -95 15z m61 -66 c27 -29 32 -53
13 -72 -19 -19 -45 -14 -67 14 -26 33 -27 60 -3 73 25 15 30 14 57 -15z"/>
<path d="M1500 2704 c-175 -19 -298 -53 -430 -119 -317 -159 -545 -469 -600
-817 -19 -115 -8 -362 19 -463 68 -246 231 -484 432 -627 137 -98 322 -173
493 -199 111 -18 322 -6 439 25 420 109 748 462 822 885 21 118 19 305 -4 416
-93 447 -445 798 -885 880 -79 15 -232 25 -286 19z m355 -88 c349 -103 618
-358 731 -693 87 -258 66 -570 -54 -808 -112 -224 -336 -431 -557 -516 -159
-62 -215 -72 -395 -73 -142 0 -177 3 -254 23 -194 51 -345 134 -485 267 -174
166 -284 372 -321 606 -18 112 -8 331 20 433 95 349 366 638 697 744 139 44
190 51 363 47 143 -3 177 -7 255 -30z"/>
<path d="M1520 2553 c-63 -33 -105 -124 -118 -260 l-7 -67 -90 -26 c-50 -14
-111 -34 -136 -43 l-46 -18 -6 -92 c-4 -50 -26 -356 -49 -679 -23 -323 -40
-590 -37 -592 3 -3 41 10 85 29 211 91 451 115 691 70 85 -16 228 -61 282 -90
l34 -17 -7 89 c-3 48 -20 282 -36 518 -17 237 -35 503 -42 593 l-12 163 -46
24 c-44 23 -143 56 -202 69 -25 6 -28 11 -28 49 0 110 -45 240 -95 273 -38 25
-95 28 -135 7z m135 -47 c35 -38 59 -111 70 -215 7 -64 7 -64 -16 -58 -13 4
-29 7 -35 7 -7 0 -13 30 -17 73 -6 87 -30 150 -63 167 -21 12 -27 11 -48 -9
-26 -25 -41 -77 -52 -178 l-6 -63 -34 0 c-40 0 -40 0 -20 111 24 133 73 199
149 199 32 0 46 -6 72 -34z m-45 -88 c13 -29 20 -66 20 -110 l0 -68 -56 0 -57
0 6 75 c8 86 29 145 52 145 9 0 24 -18 35 -42z m16 -247 c1 -50 24 -72 24 -23
0 49 9 62 45 62 28 0 34 -5 48 -40 8 -22 21 -40 27 -40 7 0 10 6 7 13 -15 40
-17 57 -8 57 21 0 167 -50 185 -63 18 -13 13 -16 -60 -40 -43 -14 -106 -31
-139 -38 -76 -15 -250 -15 -335 0 -80 14 -240 62 -240 71 0 7 166 60 188 60 9
0 12 -10 10 -30 -4 -40 15 -39 26 2 5 18 10 34 10 35 1 0 18 4 39 8 l37 7 0
-46 c0 -35 4 -46 16 -46 11 0 13 6 9 19 -12 38 5 70 38 74 67 9 72 6 73 -42z
m-374 -96 c210 -73 461 -71 667 4 l80 29 5 -31 c9 -57 89 -1247 84 -1252 -2
-3 -42 8 -89 24 -46 16 -112 35 -146 42 -59 12 -62 14 -47 31 15 16 15 17 -6
13 -12 -2 -28 -9 -34 -14 -7 -6 -34 -8 -64 -4 -43 5 -50 8 -41 20 9 10 9 20 1
38 -7 14 -15 25 -19 26 -5 0 -21 2 -38 4 -21 3 -26 2 -15 -5 8 -5 10 -10 3
-10 -6 0 3 -15 19 -32 l31 -33 -129 -6 c-143 -7 -258 -31 -378 -79 -43 -17
-80 -29 -81 -28 -2 2 91 1282 94 1297 1 2 9 0 19 -4 9 -4 47 -17 84 -30z m392
-1091 c18 -18 21 -44 5 -44 -19 0 -49 44 -36 52 15 10 13 10 31 -8z"/>
<path d="M1214 1989 c-3 -6 1 -18 9 -27 13 -13 19 -13 32 -2 12 10 13 16 4 26
-14 17 -35 18 -45 3z"/>
<path d="M1901 1986 c-9 -10 -8 -16 4 -26 13 -11 19 -11 32 2 16 17 10 38 -11
38 -8 0 -19 -6 -25 -14z"/>
<path d="M1290 1951 c0 -22 21 -33 40 -21 18 11 4 40 -20 40 -13 0 -20 -7 -20
-19z"/>
<path d="M1825 1950 c-4 -7 -3 -16 3 -22 14 -14 47 -6 47 12 0 18 -40 26 -50
10z"/>
<path d="M1364 1935 c-4 -10 -1 -21 7 -26 20 -12 34 -5 34 17 0 24 -33 31 -41
9z"/>
<path d="M1761 1941 c-19 -12 -6 -43 16 -39 10 2 18 12 18 22 0 22 -14 29 -34
17z"/>
<path d="M1170 1845 c0 -62 3 -76 18 -84 22 -12 150 -46 211 -56 41 -7 44 -6
29 9 -9 9 -24 13 -32 10 -20 -8 -162 26 -148 35 6 3 10 27 10 54 -1 26 1 50 4
53 3 3 43 -2 89 -10 45 -9 84 -14 87 -12 5 5 -7 8 -103 27 -33 6 -82 20 -110
30 -27 10 -51 19 -52 19 -2 0 -3 -34 -3 -75z m45 49 c14 -6 13 -8 -4 -21 -20
-13 -26 -63 -9 -63 4 0 8 -9 8 -20 0 -11 5 -20 12 -20 6 0 9 -2 7 -5 -3 -2
-15 -2 -27 2 -20 5 -22 12 -22 69 0 64 4 70 35 58z m37 -41 c-5 -24 -6 -25
-12 -8 -8 21 -4 35 9 35 5 0 6 -12 3 -27z m-28 -1 c3 -5 -1 -9 -9 -9 -8 0 -12
4 -9 9 3 4 7 8 9 8 2 0 6 -4 9 -8z m23 -63 c2 -16 1 -18 -11 -7 -8 7 -10 15
-5 16 5 2 6 9 2 15 -3 7 -2 9 2 4 5 -4 10 -17 12 -28z"/>
<path d="M1945 1905 c-26 -12 -75 -24 -204 -51 -17 -4 -22 -1 -19 8 4 10 -12
12 -73 10 -60 -3 -79 -7 -79 -18 0 -8 10 -14 25 -14 35 0 32 -26 -5 -33 -27
-6 -30 -10 -30 -43 0 -39 23 -44 28 -6 5 35 29 26 36 -14 8 -41 29 -41 36 1 7
37 27 43 40 11 10 -28 36 -27 42 2 4 19 -32 52 -55 52 -19 0 -31 16 -19 24 5
3 35 8 68 11 32 3 67 8 78 11 11 4 16 2 12 -4 -4 -6 2 -8 14 -5 11 3 20 9 20
14 0 17 39 9 43 -8 2 -11 3 -9 2 4 -1 13 3 19 10 16 13 -5 9 -40 -6 -49 -13
-7 -11 -64 2 -64 5 0 8 4 5 9 -4 5 3 7 14 4 16 -4 20 0 21 18 0 22 1 23 9 4 6
-15 8 -9 8 24 0 24 -3 39 -7 35 -3 -5 -12 -10 -19 -12 -10 -2 -10 2 0 17 7 11
17 17 23 13 5 -3 4 2 -4 11 -12 15 -11 17 3 17 13 0 16 -12 16 -64 l0 -63 -77
-23 c-43 -13 -96 -24 -118 -24 -22 -1 -46 -7 -54 -15 -13 -11 -8 -12 30 -6 72
12 193 45 214 59 18 12 20 22 17 85 -2 39 -7 71 -10 70 -4 0 -20 -7 -37 -14z
m-10 -113 c-3 -3 -11 0 -18 7 -9 10 -8 11 6 5 10 -3 15 -9 12 -12z"/>
<path d="M1456 1893 c-3 -3 -6 -44 -6 -90 l0 -83 39 0 c47 0 67 19 51 49 -6
13 -21 21 -35 21 -37 0 -30 18 8 22 24 2 33 8 35 26 3 19 -1 22 -32 22 -25 0
-36 5 -36 14 0 17 -14 28 -24 19z m65 -58 c0 -5 -9 -11 -21 -13 -20 -3 -27 8
-13 22 10 9 34 3 34 -9z m-6 -75 c3 -6 -1 -13 -10 -16 -19 -8 -30 0 -20 15 8
14 22 14 30 1z"/>
<path d="M1273 1809 c2 -43 6 -53 25 -60 23 -9 29 0 11 18 -7 7 -6 12 6 17 10
4 14 2 9 -6 -4 -6 -3 -8 2 -5 6 3 11 22 12 43 2 29 0 35 -12 31 -9 -4 -18 -2
-21 3 -4 6 -13 10 -20 10 -11 0 -14 -13 -12 -51z m54 9 c-3 -8 -6 -5 -6 6 -1
11 2 17 5 13 3 -3 4 -12 1 -19z m-17 8 c0 -2 -7 -7 -16 -10 -8 -3 -12 -2 -9 4
6 10 25 14 25 6z m-23 -58 c-3 -8 -6 -5 -6 6 -1 11 2 17 5 13 3 -3 4 -12 1
-19z"/>
<path d="M1865 1850 c-4 -6 -1 -17 5 -25 17 -20 5 -19 -14 1 -15 14 -16 14
-16 -1 0 -9 -4 -14 -8 -11 -5 3 -9 -2 -9 -10 0 -9 6 -13 14 -10 9 4 11 1 7 -5
-4 -8 1 -9 15 -4 16 5 21 2 21 -12 0 -11 -3 -14 -8 -6 -5 8 -14 6 -31 -8 -25
-21 -17 -24 22 -10 20 8 24 16 24 55 1 45 -9 66 -22 46z"/>
<path d="M1359 1838 c-8 -27 -6 -50 4 -60 19 -21 20 -41 2 -34 -9 3 -13 2 -10
-4 10 -16 41 -12 56 7 12 14 12 16 -2 11 -10 -4 -16 -1 -16 8 0 8 6 13 12 10
6 -2 12 2 12 10 0 7 -4 11 -9 8 -4 -3 -8 2 -8 11 0 15 -1 15 -16 0 -9 -9 -19
-13 -23 -10 -3 4 5 15 18 26 23 19 23 19 2 19 -12 0 -21 -1 -22 -2z"/>
<path d="M1768 1828 c9 -9 15 -9 24 0 9 9 7 12 -12 12 -19 0 -21 -3 -12 -12z"/>
<path d="M1748 1818 c15 -15 16 -31 0 -22 -7 5 -8 3 -2 -7 4 -8 8 -23 9 -34 0
-14 8 -21 25 -23 14 -2 21 1 15 5 -13 11 -17 33 -6 33 11 0 8 26 -4 37 -4 4
-5 1 0 -7 4 -8 -2 -5 -14 8 -12 12 -25 22 -28 22 -4 0 -2 -5 5 -12z"/>
<path d="M1820 1770 c0 -5 5 -10 10 -10 6 0 10 5 10 10 0 6 -4 10 -10 10 -5 0
-10 -4 -10 -10z"/>
<path d="M1194 1715 c-4 -10 -1 -21 7 -26 20 -12 34 -5 34 17 0 24 -33 31 -41
9z"/>
<path d="M1923 1723 c-18 -7 -16 -32 2 -39 23 -9 48 15 34 32 -12 15 -16 16
-36 7z"/>
<path d="M1270 1680 c0 -16 5 -21 23 -18 12 2 22 10 22 18 0 8 -10 16 -22 18
-18 3 -23 -2 -23 -18z"/>
<path d="M1840 1680 c0 -16 5 -21 23 -18 12 2 22 10 22 18 0 8 -10 16 -22 18
-18 3 -23 -2 -23 -18z m30 0 c0 -5 -4 -10 -10 -10 -5 0 -10 5 -10 10 0 6 5 10
10 10 6 0 10 -4 10 -10z"/>
<path d="M1360 1680 c-18 -11 -4 -42 17 -38 10 2 19 10 21 19 4 19 -19 31 -38
19z m30 -14 c0 -3 -4 -8 -10 -11 -5 -3 -10 -1 -10 4 0 6 5 11 10 11 6 0 10 -2
10 -4z"/>
<path d="M1760 1659 c0 -15 5 -20 22 -17 34 5 37 38 4 38 -20 0 -26 -5 -26
-21z m30 1 c0 -5 -4 -10 -10 -10 -5 0 -10 5 -10 10 0 6 5 10 10 10 6 0 10 -4
10 -10z"/>
<path d="M1157 1643 c-4 -3 -7 -37 -7 -74 l0 -68 78 -24 c42 -14 96 -28 120
-32 26 -4 42 -12 42 -21 0 -17 16 -18 27 -2 4 7 20 46 34 88 20 59 30 76 47
78 18 3 22 -1 22 -25 -1 -15 -7 -46 -15 -68 -19 -52 -19 -75 1 -75 17 0 36 40
54 117 6 29 16 51 20 48 4 -3 16 -35 25 -72 19 -73 38 -104 55 -87 6 6 2 32
-10 73 -27 84 -26 93 7 89 23 -3 28 -11 43 -65 19 -70 46 -116 63 -110 7 3 11
9 10 15 -1 5 15 12 37 16 22 3 76 18 120 32 l81 25 -3 72 c-3 82 4 79 -108 49
-108 -28 -174 -37 -165 -21 5 7 4 10 -3 5 -6 -3 -13 -2 -17 4 -3 5 -28 10 -54
10 -31 0 -53 5 -61 15 -7 8 -18 15 -25 15 -7 0 -18 -7 -25 -15 -7 -9 -29 -15
-51 -15 -21 0 -45 -7 -53 -16 -14 -14 -25 -14 -89 -4 -39 7 -99 21 -132 31
-33 10 -60 19 -61 19 0 0 -4 -3 -7 -7z m27 -24 c-10 -4 -13 -8 -6 -8 7 -1 10
-6 7 -11 -4 -6 -8 -27 -10 -48 -2 -20 -1 -29 2 -19 2 9 9 17 14 17 6 0 6 -7 0
-19 -8 -15 -7 -20 8 -24 13 -3 22 3 30 22 11 24 10 25 -4 7 -8 -11 -15 -16
-15 -11 0 5 7 17 17 27 9 10 12 18 6 18 -5 0 -10 7 -10 15 0 8 4 12 8 9 4 -2
9 0 11 6 2 8 174 -15 187 -26 6 -5 -32 -104 -41 -104 -4 0 -5 8 -2 18 5 13 4
14 -4 3 -6 -8 -12 -9 -16 -3 -3 6 3 13 14 17 11 3 20 13 20 21 0 8 -4 12 -10
9 -5 -3 -10 0 -10 9 0 8 6 17 13 20 6 4 -3 4 -21 1 -23 -3 -31 -1 -26 7 4 6 3
8 -3 5 -6 -4 -8 -19 -6 -34 3 -16 6 -38 6 -50 1 -14 8 -23 19 -23 9 0 20 -4
23 -10 3 -5 0 -10 -7 -10 -20 0 -127 28 -175 47 -42 15 -43 16 -43 64 0 60 7
79 28 72 13 -6 13 -8 -4 -14z m816 -49 c0 -58 0 -58 -37 -73 -75 -29 -183 -51
-196 -38 -8 8 -7 15 6 28 11 11 17 13 17 5 0 -7 -4 -12 -10 -12 -5 0 -10 -4
-10 -10 0 -5 7 -10 16 -10 8 0 13 4 10 8 -3 5 2 21 10 36 17 34 18 62 2 72 -6
4 -8 3 -5 -2 3 -5 -6 -10 -21 -9 -19 0 -27 -6 -29 -20 l-3 -20 9 20 c8 17 9
15 8 -11 -2 -34 -27 -37 -27 -4 0 10 -2 25 -5 32 -5 11 17 18 92 32 54 9 112
23 128 30 17 7 33 11 38 9 4 -2 7 -30 7 -63z m-630 -24 c0 -2 -7 -7 -16 -10
-8 -3 -12 -2 -9 4 6 10 25 14 25 6z"/>
<path d="M1259 1596 c-1 0 -3 -26 -4 -56 0 -30 1 -47 3 -37 5 24 22 22 17 -3
-2 -11 0 -20 5 -20 4 0 17 -3 27 -6 14 -4 15 -4 4 4 -8 6 -10 15 -6 22 5 9 4
11 -3 6 -8 -5 -10 -2 -6 8 3 9 9 14 13 11 4 -2 8 2 8 10 0 8 -4 12 -9 9 -4 -3
-8 3 -8 12 0 16 -1 16 -15 -2 -8 -10 -15 -17 -15 -14 -8 34 -9 53 -3 44 9 -11
54 -14 47 -3 -3 6 -51 19 -55 15z"/>
<path d="M1941 1609 c-19 -8 -21 -12 -11 -24 9 -10 9 -15 1 -15 -14 0 -10 -48
5 -61 6 -5 19 -7 28 -3 12 5 13 10 5 25 -6 13 -6 19 1 19 5 0 10 11 10 25 0
14 -6 25 -12 25 -9 0 -8 4 2 10 19 12 3 12 -29 -1z m9 -80 c0 -5 -4 -9 -8 -9
-5 0 -9 7 -9 15 0 8 4 12 9 9 4 -3 8 -9 8 -15z"/>
<path d="M1837 1583 c-7 -16 -6 -102 2 -107 4 -3 7 6 5 19 -2 27 11 42 22 24
3 -6 0 -15 -7 -20 -11 -6 -10 -9 3 -14 25 -10 42 3 27 21 -6 8 -7 14 -2 14 5
0 9 15 9 33 0 29 -4 33 -27 35 -15 1 -29 -1 -32 -5z m20 -18 c0 -8 -4 -15 -9
-15 -4 0 -8 7 -8 15 0 8 4 15 8 15 5 0 9 -7 9 -15z m30 -10 c0 -8 -4 -12 -9
-9 -4 3 -8 9 -8 15 0 5 4 9 8 9 5 0 9 -7 9 -15z"/>
<path d="M1174 1455 c-8 -19 12 -36 33 -28 19 7 12 37 -10 41 -9 2 -20 -4 -23
-13z"/>
<path d="M1937 1463 c-4 -3 -7 -15 -7 -25 0 -23 38 -25 47 -2 8 21 -24 43 -40
27z"/>
<path d="M1260 1440 c-18 -11 -4 -40 20 -40 13 0 20 7 20 19 0 22 -21 33 -40
21z"/>
<path d="M1340 1420 c-18 -11 -4 -42 17 -38 10 2 19 10 21 19 4 19 -19 31 -38
19z m30 -14 c0 -3 -4 -8 -10 -11 -5 -3 -10 -1 -10 4 0 6 5 11 10 11 6 0 10 -2
10 -4z"/>
<path d="M1855 1420 c-4 -7 -3 -16 3 -22 14 -14 47 -6 47 12 0 18 -40 26 -50
10z"/>
<path d="M1783 1409 c-16 -16 -5 -39 18 -39 24 0 37 29 18 41 -18 11 -23 11
-36 -2z m27 -13 c0 -3 -4 -8 -10 -11 -5 -3 -10 -1 -10 4 0 6 5 11 10 11 6 0
10 -2 10 -4z"/>
<path d="M1335 1310 c-3 -6 -1 -9 6 -8 7 2 14 -6 16 -17 3 -15 2 -16 -5 -7 -7
11 -10 11 -15 -2 -4 -10 -1 -16 8 -16 22 0 26 -16 4 -17 -19 -2 -23 7 -20 37
1 9 -1 11 -6 5 -4 -6 -20 -15 -34 -22 -23 -10 -26 -8 -36 18 -7 19 -18 29 -32
29 -29 0 -32 -11 -15 -56 8 -21 13 -28 11 -14 -3 14 -8 34 -13 45 -7 18 -6 18
9 6 9 -7 18 -25 18 -40 1 -26 1 -26 10 4 7 26 8 23 6 -17 -1 -27 0 -48 3 -49
3 0 18 -3 35 -5 44 -8 42 -13 -4 -12 -27 0 -45 6 -51 17 -5 9 -10 11 -10 4 0
-6 5 -15 10 -18 15 -9 12 -25 -6 -25 -8 0 -13 4 -10 8 8 14 -54 82 -74 82 -30
0 -29 -23 3 -60 25 -29 38 -35 76 -38 25 -1 54 -10 65 -20 20 -16 20 -16 7 1
-9 11 -10 17 -2 17 6 0 16 -11 23 -25 9 -19 8 -29 -6 -50 -9 -14 -22 -25 -28
-25 -6 0 -3 10 8 23 l19 22 -23 -19 c-12 -11 -24 -17 -27 -14 -3 3 1 11 10 18
31 26 13 53 -42 63 -27 5 -33 3 -32 -11 0 -9 3 -12 5 -6 6 15 64 4 71 -13 8
-19 -17 -42 -52 -49 -24 -4 -26 -3 -16 10 7 9 8 16 2 20 -5 4 -12 2 -16 -3 -3
-5 -14 -9 -25 -8 -14 1 -16 4 -8 14 7 9 6 15 -7 19 -17 7 -17 8 1 21 10 7 13
13 7 13 -16 0 -43 -35 -42 -56 1 -15 3 -14 9 6 7 22 8 23 9 4 1 -23 27 -51 38
-41 10 10 34 -14 26 -26 -3 -6 4 -3 18 6 26 19 43 22 34 7 -4 -6 1 -7 12 -4
11 3 7 -3 -10 -16 -15 -12 -32 -30 -37 -40 -9 -17 -7 -18 19 -10 16 4 33 5 37
2 4 -4 4 -2 1 5 -4 6 -17 9 -30 6 -22 -5 -22 -5 -2 10 18 14 22 14 40 -1 19
-16 19 -16 4 3 -15 19 -14 22 22 56 22 20 39 33 40 30 0 -3 5 7 9 23 11 34 2
56 -12 32 -9 -15 -12 -16 -26 -3 -10 8 -24 17 -32 20 -9 3 -5 6 10 6 14 1 40
10 59 22 l34 20 -8 -43 c-4 -24 -8 -59 -10 -78 -2 -31 -25 -58 -25 -29 0 7 -3
9 -6 6 -4 -4 -2 -13 5 -20 9 -11 8 -17 -4 -27 -8 -7 -15 -20 -14 -29 0 -13 2
-13 8 2 4 10 10 17 13 15 3 -2 15 6 27 16 12 11 21 14 21 9 0 -6 -7 -16 -15
-23 -8 -7 -15 -19 -15 -27 0 -7 7 -16 15 -19 24 -10 17 -23 -11 -20 -14 2 -30
9 -35 17 -5 8 -9 9 -9 4 0 -18 23 -35 46 -35 30 0 41 20 21 35 -10 7 -17 17
-17 22 0 16 33 41 60 46 22 4 22 4 3 6 -16 1 -20 6 -16 24 4 18 3 19 -6 7 -6
-9 -11 -10 -11 -3 0 20 12 43 20 38 5 -3 20 -1 35 5 23 9 26 8 23 -7 -2 -9
-14 -20 -28 -24 -16 -4 -6 -6 25 -4 28 1 49 7 48 12 -1 6 9 11 22 11 34 0 32
-4 -16 -28 -27 -14 -51 -19 -72 -16 l-32 6 30 -11 c49 -19 58 -29 40 -49 -8
-9 -15 -20 -15 -24 0 -5 9 2 19 15 11 13 22 22 25 19 3 -3 -6 -18 -19 -32 -16
-18 -21 -29 -14 -34 6 -4 26 10 45 30 31 34 32 36 11 37 -21 0 -21 1 3 10 14
6 33 8 44 5 10 -3 29 2 43 11 19 13 29 14 49 4 36 -16 44 -13 11 5 -21 12 -26
19 -18 28 6 7 8 16 4 19 -3 4 0 7 8 8 8 0 22 2 32 4 19 4 21 -3 9 -23 -5 -7
-16 -10 -24 -7 -9 4 -19 2 -22 -3 -7 -12 22 -25 35 -16 5 3 9 -1 9 -9 0 -7 12
-24 27 -38 20 -17 23 -18 10 -3 -23 27 -22 42 1 21 10 -10 22 -14 25 -11 4 4
13 -8 21 -27 9 -19 15 -27 16 -19 0 9 -7 25 -15 38 -12 17 -13 26 -5 42 11 20
12 19 50 -12 36 -28 39 -33 25 -48 -8 -9 -15 -25 -14 -36 1 -15 3 -14 10 6 l8
25 -2 -24 c-3 -36 -27 -39 -27 -4 0 16 6 35 13 43 10 12 9 12 -6 0 -26 -19
-19 -74 9 -78 17 -2 22 3 26 27 2 17 0 33 -6 35 -6 2 -4 5 4 5 8 0 30 -19 47
-43 37 -48 74 -72 98 -62 20 7 16 38 -5 43 -12 4 -13 3 -1 -5 7 -5 12 -15 9
-22 -2 -8 -15 -3 -36 15 -18 15 -32 24 -32 20 0 -4 -7 -2 -15 5 -8 7 -15 17
-15 22 0 6 7 5 15 -2 8 -7 15 -9 15 -5 0 5 10 0 21 -11 12 -10 5 5 -15 33 -39
55 -38 69 5 85 25 10 19 52 -8 56 -21 3 -29 -10 -24 -40 0 -5 -3 -9 -9 -9 -5
-1 -14 -3 -20 -4 -5 -1 -13 -3 -16 -4 -4 0 0 -8 7 -17 7 -9 14 -21 15 -28 1
-6 5 -20 9 -31 6 -16 3 -15 -14 5 -11 14 -15 27 -10 29 6 2 -2 12 -18 22 -15
10 -22 19 -15 19 10 0 9 4 -2 16 -21 20 -20 31 2 43 9 6 12 11 6 11 -23 0 -36
-27 -24 -49 7 -14 7 -21 1 -21 -17 0 -25 49 -11 65 7 8 21 15 31 15 11 0 19 5
19 11 0 6 7 8 17 5 10 -4 14 -4 11 0 -9 8 40 74 55 74 5 0 2 -10 -9 -22 -17
-21 -16 -21 9 1 15 14 27 20 27 15 -1 -18 -56 -73 -83 -83 -21 -8 -27 -17 -26
-38 1 -28 1 -28 8 -3 9 35 65 45 100 17 14 -10 14 -10 3 5 -8 9 -22 18 -33 20
-18 3 -17 6 10 38 37 43 39 58 6 58 -18 0 -34 -12 -52 -34 -24 -32 -53 -48
-37 -21 4 6 -2 4 -13 -6 -13 -11 -23 -14 -27 -8 -4 5 3 15 14 21 11 6 20 16
20 22 0 6 -8 4 -18 -5 -10 -10 -22 -14 -27 -10 -4 5 -5 3 -2 -4 4 -6 1 -14 -5
-16 -10 -4 -10 -6 0 -6 6 -1 12 -8 12 -17 0 -8 -5 -12 -10 -9 -6 4 -17 1 -25
-5 -17 -14 -35 -5 -35 18 -1 16 -1 16 -10 0 -12 -20 -2 -51 14 -45 7 3 11 -5
10 -22 -3 -37 -3 -37 -15 -21 -8 12 -9 10 -4 -7 3 -13 4 -23 0 -23 -3 0 -10
10 -15 23 -8 21 -9 21 -9 1 -1 -30 -31 -27 -31 3 0 13 4 22 8 19 4 -2 14 -1
22 4 11 7 11 16 2 48 -14 44 -16 72 -4 57 4 -5 12 -11 17 -12 6 -1 19 -4 30
-8 11 -3 7 1 -8 10 -16 9 -25 21 -21 27 5 8 1 9 -10 5 -11 -4 -15 -3 -10 4 4
8 -3 9 -24 4 -17 -3 -39 -2 -49 4 -13 7 -14 10 -4 11 8 0 11 3 8 7 -10 9 -48
-28 -40 -40 4 -6 0 -8 -11 -4 -11 5 -15 3 -10 -4 4 -7 1 -10 -6 -7 -7 2 -14
12 -16 22 -2 13 2 16 14 12 10 -4 7 1 -6 12 -22 17 -22 19 -7 32 20 17 42 56
26 46 -6 -4 -11 -2 -11 5 0 7 -6 5 -14 -6 -18 -25 -45 -28 -65 -7 -9 10 -13
13 -8 8 14 -19 7 -28 -10 -15 -17 13 -17 12 -2 -6 35 -44 28 -47 -12 -5 -40
43 -41 43 -14 7 25 -35 26 -40 12 -54 -14 -15 -18 -15 -41 0 -14 10 -43 17
-65 17 -37 0 -40 2 -43 32 -3 32 -21 48 -33 28z m-95 -20 c0 -5 -2 -10 -4 -10
-3 0 -8 5 -11 10 -3 6 -1 10 4 10 6 0 11 -4 11 -10z m372 -23 c-12 -13 -19
-27 -15 -31 10 -10 12 -36 3 -36 -5 0 -12 5 -15 10 -3 6 -1 10 5 10 6 0 8 5 5
11 -5 7 -13 5 -25 -6 -10 -9 -25 -13 -36 -9 -14 4 -15 3 -5 -4 17 -12 -1 -24
-26 -16 -12 4 -14 3 -5 -3 17 -13 -33 -36 -62 -28 -18 5 -17 3 4 -9 16 -9 29
-11 37 -5 7 7 13 6 17 0 7 -11 -10 -24 -39 -28 -11 -2 -22 -8 -23 -13 -2 -6
-8 -8 -12 -5 -14 9 -32 -34 -24 -58 3 -12 3 -19 -1 -14 -5 4 -18 -1 -29 -10
-20 -17 -20 -17 -6 0 8 11 15 33 15 50 3 70 16 107 39 107 29 0 52 15 37 24
-6 4 -11 2 -11 -3 0 -6 -12 -11 -27 -11 -21 0 -24 3 -15 12 17 17 15 28 -5 28
-16 0 -16 -2 -3 -11 12 -8 10 -9 -9 -4 -15 5 -21 3 -17 -3 4 -6 -1 -15 -11
-21 -20 -10 -73 -3 -73 10 0 5 12 4 26 -1 26 -10 48 -5 39 9 -2 5 -17 6 -32 3
-25 -5 -26 -3 -15 11 11 13 10 15 -4 13 -10 -2 -18 -11 -20 -20 -4 -29 -14
-31 -14 -3 0 38 29 50 60 26 25 -19 45 -25 37 -11 -3 4 17 8 45 10 48 3 83
-11 72 -29 -8 -14 6 -10 40 10 17 11 34 20 39 20 4 1 6 3 5 4 -6 7 25 37 32
32 4 -3 13 2 20 10 7 9 15 13 18 10 3 -3 -4 -16 -16 -28z m-428 -69 c35 -46
12 -57 -31 -16 -24 23 -29 34 -20 40 19 12 24 10 51 -24z m545 2 c25 0 28 -20
4 -21 -15 -1 -15 -2 2 -6 17 -5 15 -7 -10 -18 l-30 -14 35 6 c24 3 31 2 22 -5
-11 -8 -11 -10 1 -15 15 -6 17 -31 4 -42 -4 -3 -5 -2 -2 1 6 10 -20 33 -52 45
-27 10 -28 11 -8 26 20 15 20 15 -2 8 -13 -3 -30 -2 -39 3 -15 8 -15 10 1 16
10 3 27 4 39 1 20 -6 20 -6 2 9 -10 9 -23 13 -29 9 -6 -3 -7 -1 -3 5 5 9 13 9
26 2 10 -5 28 -10 39 -10z m-128 -11 c41 -29 38 -49 -8 -49 l-36 0 48 -25 c27
-13 52 -22 57 -19 17 11 7 -27 -12 -46 -14 -14 -29 -19 -52 -16 -18 2 -35 0
-38 -5 -9 -13 -52 -15 -57 -2 -3 7 5 10 21 9 16 -2 23 1 20 9 -6 15 21 29 59
30 15 0 27 0 27 -2 0 -1 -12 -9 -27 -17 l-28 -15 28 3 c15 2 36 11 45 21 9 10
11 15 5 11 -7 -4 -13 -3 -13 2 0 6 -10 10 -22 11 -13 1 -44 3 -70 5 -45 4 -64
-6 -35 -17 9 -4 9 -6 -1 -6 -24 -2 -26 31 -3 51 13 10 18 18 12 18 -22 0 -11
36 17 52 34 22 29 22 63 -3z m107 -69 c28 -12 28 -15 -4 -18 -14 -1 -23 2 -19
8 5 9 -1 12 -21 9 -8 -1 -24 22 -24 35 0 5 10 1 23 -8 12 -9 32 -21 45 -26z
m142 -5 c-19 -23 -3 -63 31 -81 17 -8 28 -18 25 -21 -3 -3 -21 6 -41 21 -25
20 -35 35 -35 55 0 29 7 41 23 41 5 0 4 -7 -3 -15z m146 -47 c4 -6 3 -8 -3 -5
-6 4 -16 0 -23 -8 -7 -8 -18 -15 -24 -15 -6 0 -3 5 7 11 9 6 15 14 12 20 -4 5
1 9 9 9 8 0 18 -5 22 -12z m-16 -110 c0 -17 -10 -6 -25 25 l-16 32 20 -25 c11
-14 21 -28 21 -32z m-450 13 c-5 -11 -15 -23 -22 -27 -7 -5 -8 -2 -3 7 21 37
44 55 25 20z m476 -72 c19 -22 19 -22 -3 -8 -13 8 -23 17 -23 21 0 12 6 9 26
-13z"/>
<path d="M1440 1226 c0 -2 7 -7 16 -10 8 -3 12 -2 9 4 -6 10 -25 14 -25 6z"/>
<path d="M1460 1180 c-8 -5 -10 -10 -5 -10 6 0 17 5 25 10 8 5 11 10 5 10 -5
0 -17 -5 -25 -10z"/>
<path d="M1160 1193 c13 -18 25 -33 27 -33 8 0 -17 38 -33 51 -11 9 -9 2 6
-18z"/>
<path d="M1558 1113 c7 -3 16 -2 19 1 4 3 -2 6 -13 5 -11 0 -14 -3 -6 -6z"/>
<path d="M1590 1106 c0 -2 7 -7 16 -10 8 -3 12 -2 9 4 -6 10 -25 14 -25 6z"/>
<path d="M1780 1301 c0 -5 5 -13 12 -17 7 -4 8 -3 4 4 -4 7 -3 12 3 12 5 0 12
-5 14 -10 3 -6 4 -5 3 2 -3 16 -36 24 -36 9z"/>
<path d="M1905 1294 c-8 -9 -15 -21 -15 -27 0 -7 4 -6 10 3 8 13 10 13 10 1 0
-11 4 -9 16 5 14 18 15 18 9 -6 -5 -19 -4 -22 4 -10 24 34 -5 63 -34 34z"/>
<path d="M1768 1249 c-16 -17 -16 -18 3 -24 10 -4 24 -15 29 -26 14 -24 25
-24 51 2 15 15 18 24 10 33 -6 7 -9 15 -6 18 3 2 -9 2 -26 0 -17 -3 -34 0 -38
5 -3 5 -14 1 -23 -8z m61 -17 c11 2 20 0 21 -4 1 -24 -1 -28 -15 -28 -8 0 -23
9 -32 19 -9 11 -21 17 -26 14 -6 -3 -7 -1 -3 6 6 9 11 9 21 1 8 -6 23 -10 34
-8z"/>
<path d="M1808 1263 c6 -2 18 -2 25 0 6 3 1 5 -13 5 -14 0 -19 -2 -12 -5z"/>
<path d="M1876 1237 c3 -10 9 -15 12 -12 3 3 0 11 -7 18 -10 9 -11 8 -5 -6z"/>
<path d="M1922 1215 c0 -16 2 -22 5 -12 2 9 2 23 0 30 -3 6 -5 -1 -5 -18z"/>
<path d="M1172 1110 c0 -14 2 -19 5 -12 2 6 2 18 0 25 -3 6 -5 1 -5 -13z"/>
<path d="M2008 1048 c-10 -10 -14 -18 -9 -18 10 0 36 29 30 34 -2 1 -12 -6
-21 -16z"/>
<path d="M1158 1033 c7 -3 16 -2 19 1 4 3 -2 6 -13 5 -11 0 -14 -3 -6 -6z"/>
<path d="M1210 1015 c-7 -8 -16 -12 -20 -10 -5 3 -17 -9 -27 -26 -10 -16 -33
-40 -51 -51 -37 -23 -37 -42 -1 -46 17 -2 34 8 59 35 19 21 25 29 13 19 -32
-27 -29 -14 12 44 33 47 42 67 15 35z m-20 -24 c0 -5 -11 -23 -25 -39 -27 -32
-32 -48 -12 -36 8 5 8 2 -2 -9 -15 -18 -26 -23 -16 -7 3 6 2 10 -4 10 -5 0
-13 -4 -16 -10 -8 -12 -25 -13 -25 -2 0 5 11 14 25 20 13 6 35 27 47 47 24 37
28 40 28 26z"/>
<path d="M1761 951 c-19 -14 -21 -20 -10 -26 8 -5 11 -5 7 0 -4 4 3 16 15 26
29 24 19 24 -12 0z"/>
<path d="M1254 940 c3 -26 27 -35 32 -12 2 8 1 9 -3 1 -4 -8 -11 -3 -19 12
l-14 24 4 -25z"/>
<path d="M1631 973 c7 -12 15 -20 18 -17 3 2 -3 12 -13 22 -17 16 -18 16 -5
-5z"/>
<path d="M2291 1770 c-13 -11 -31 -20 -41 -20 -27 0 -50 -11 -50 -22 0 -7 17
-8 48 -3 60 9 87 9 140 0 58 -10 56 11 -2 26 -25 6 -47 17 -50 25 -7 19 -16
17 -45 -6z"/>
<path d="M740 1767 c0 -8 5 -17 12 -19 9 -3 9 -40 0 -163 -7 -87 -10 -161 -7
-164 3 -2 11 1 18 8 7 7 14 65 19 159 3 81 7 151 7 155 1 5 6 5 12 1 8 -5 10
-50 5 -158 -7 -149 -3 -202 15 -174 5 7 9 86 9 174 0 176 -1 179 -58 190 -25
5 -32 3 -32 -9z"/>
<path d="M878 1764 l-28 -15 0 -169 c0 -151 2 -170 16 -170 15 0 16 17 13 162
-3 111 -1 162 7 165 7 2 13 -46 17 -153 3 -87 11 -162 16 -167 20 -20 23 21
11 174 -10 136 -9 154 5 161 8 5 13 13 10 19 -9 13 -36 11 -67 -7z"/>
<path d="M2248 1689 c-21 -12 -24 -49 -6 -67 7 -7 22 -12 35 -12 28 0 30 -11
3 -27 -33 -21 -69 -183 -40 -183 6 0 10 2 10 4 0 19 23 117 33 141 11 28 12
25 17 -53 3 -45 10 -82 15 -82 6 0 12 37 15 82 4 74 6 80 18 61 7 -13 18 -50
25 -83 12 -61 33 -79 30 -26 -3 62 -15 98 -45 131 -30 35 -30 35 -7 35 49 0
70 39 39 70 -15 15 -33 20 -72 20 -29 0 -61 -5 -70 -11z m122 -39 c0 -17 -7
-20 -49 -20 -28 0 -53 5 -56 10 -12 20 7 30 56 30 42 0 49 -3 49 -20z"/>
<path d="M2390 2600 c-61 -69 -62 -71 -44 -91 17 -19 18 -19 57 18 l39 38 -7
-40 c-3 -22 -8 -49 -10 -61 -3 -13 4 -29 18 -42 l22 -21 67 73 c66 73 67 74
47 92 -19 17 -21 16 -60 -22 -37 -36 -40 -37 -35 -14 17 84 17 102 0 121 -9
10 -20 19 -25 19 -4 0 -35 -32 -69 -70z"/>
<path d="M587 2573 c-16 -16 -15 -19 21 -56 l37 -39 -40 7 c-22 3 -49 8 -61
10 -13 3 -29 -4 -42 -18 l-21 -22 73 -67 c73 -66 74 -67 92 -47 17 19 16 21
-22 60 -28 30 -34 40 -19 36 11 -3 40 -9 65 -12 39 -6 48 -3 65 15 l20 22 -70
64 c-38 35 -72 64 -75 64 -3 0 -13 -8 -23 -17z"/>
<path d="M2585 2404 c-38 -31 -71 -57 -72 -58 -1 -1 7 -12 17 -25 l18 -25 68
54 c38 29 73 57 77 61 10 8 -13 49 -28 49 -5 0 -41 -25 -80 -56z"/>
<path d="M2687 2271 l-68 -80 16 -31 c9 -18 22 -30 29 -27 6 3 53 11 104 18
51 7 92 15 92 18 0 3 -8 16 -18 28 -17 22 -19 22 -77 8 -84 -20 -84 -20 -32
33 49 50 55 67 34 96 -11 16 -19 10 -80 -63z"/>
<path d="M344 2218 c-27 -13 -54 -69 -54 -112 0 -60 82 -110 141 -86 36 15 69
74 69 123 0 28 -5 36 -35 50 -20 9 -38 17 -40 17 -3 0 -14 -18 -25 -40 -20
-39 -20 -39 -1 -50 16 -8 21 -6 26 10 8 26 25 16 25 -14 0 -49 -57 -59 -100
-16 -22 22 -17 57 11 65 10 4 19 12 19 20 0 7 3 20 6 29 7 18 -10 20 -42 4z"/>
<path d="M2795 2053 c-44 -14 -82 -27 -84 -29 -3 -2 6 -38 19 -79 17 -54 28
-75 40 -75 27 0 29 9 13 57 -13 37 -13 47 -2 53 19 12 27 4 40 -40 13 -42 16
-45 37 -32 10 7 9 17 -2 50 -10 28 -11 44 -5 48 14 9 24 -4 39 -48 8 -27 17
-38 31 -38 10 0 19 5 19 12 0 27 -45 148 -54 148 -6 -1 -47 -12 -91 -27z"/>
<path d="M225 1962 c-3 -3 -5 -16 -5 -28 0 -18 7 -25 28 -30 69 -15 69 -16 5
-45 -53 -23 -63 -32 -63 -53 0 -22 7 -26 91 -45 51 -12 93 -20 95 -19 1 2 5
15 9 30 6 25 5 27 -39 33 -25 4 -46 10 -46 14 0 4 23 15 51 26 50 19 81 58 62
76 -11 10 -181 47 -188 41z"/>
<path d="M2827 1810 c-59 -10 -61 -12 -53 -45 6 -23 10 -25 46 -19 50 8 51 -5
4 -43 -30 -24 -35 -34 -32 -62 l3 -33 40 29 c38 28 41 29 67 14 21 -12 32 -13
45 -5 31 19 36 39 29 107 l-8 67 -46 -1 c-26 -1 -69 -5 -95 -9z m111 -77 c-2
-17 -9 -28 -18 -28 -9 0 -16 11 -18 28 -3 22 1 27 18 27 17 0 21 -5 18 -27z"/>
<path d="M175 1649 c-4 -12 -3 -25 2 -29 4 -5 50 -10 101 -12 l92 -3 0 33 0
32 -94 0 c-87 0 -95 -2 -101 -21z"/>
<path d="M2806 1545 c-30 -30 -32 -107 -4 -142 6 -7 26 -13 44 -13 36 0 57 22
69 73 4 15 13 27 21 27 19 0 18 -36 -1 -44 -19 -7 -20 -56 -1 -56 56 0 74 136
21 156 -34 13 -63 -5 -81 -51 -17 -46 -40 -58 -51 -28 -4 10 2 23 15 34 28 22
29 59 3 59 -11 0 -26 -7 -35 -15z"/>
<path d="M240 1522 c-64 -4 -73 -10 -65 -44 6 -23 8 -24 73 -17 37 4 70 5 75
2 11 -7 8 -33 -4 -33 -14 0 -7 -52 8 -57 21 -7 53 35 53 71 0 64 -36 85 -140
78z"/>
<path d="M2760 1317 c0 -8 -3 -22 -6 -30 -4 -12 15 -20 91 -37 52 -13 97 -21
99 -19 2 2 6 16 9 30 6 25 4 26 -71 42 -42 10 -87 20 -99 23 -17 5 -23 2 -23
-9z"/>
<path d="M303 1297 c-45 -12 -85 -25 -88 -29 -4 -4 -5 -18 -1 -31 l6 -24 89
21 c49 12 92 24 96 27 7 8 -5 59 -14 58 -3 0 -43 -11 -88 -22z"/>
<path d="M395 1180 c-3 -5 1 -26 10 -47 9 -20 13 -43 11 -50 -10 -24 -28 -13
-43 27 -15 38 -35 51 -48 30 -3 -5 1 -26 10 -46 14 -35 13 -54 -5 -54 -4 0
-16 20 -26 45 -16 43 -36 57 -49 34 -7 -11 45 -149 57 -149 3 0 44 16 92 36
l85 36 -20 51 c-12 29 -25 62 -30 75 -9 22 -33 30 -44 12z"/>
<path d="M2867 1130 c-8 -21 -16 -29 -27 -24 -109 44 -122 47 -131 33 -20 -31
-9 -45 56 -69 36 -13 65 -25 65 -27 0 -1 -5 -14 -10 -29 -8 -21 -8 -29 2 -36
30 -19 39 -5 93 144 4 11 -1 20 -15 28 -19 10 -22 8 -33 -20z"/>
<path d="M472 954 c-12 -8 -22 -24 -22 -34 0 -14 -8 -20 -32 -22 -49 -5 -50
-44 -4 -114 20 -30 39 -54 41 -54 3 0 41 24 84 53 l78 52 -29 45 c-27 44 -72
90 -86 90 -4 0 -18 -7 -30 -16z m65 -74 c11 -16 10 -21 -7 -30 -15 -8 -21 -6
-30 9 -5 11 -10 24 -10 30 0 19 35 12 47 -9z m-62 -47 c3 -9 0 -20 -7 -24 -17
-11 -42 15 -35 35 7 18 33 11 42 -11z"/>
<path d="M2596 915 c-16 -24 -16 -25 18 -47 25 -16 44 -42 64 -88 l29 -65 17
33 c15 29 15 35 1 62 l-16 30 35 0 c26 0 40 7 56 28 l22 27 -79 5 c-51 3 -87
11 -104 23 -26 17 -27 17 -43 -8z"/>
<path d="M1213 396 c-28 -13 -43 -27 -43 -39 0 -16 5 -18 31 -13 29 6 30 4 25
-22 -15 -76 -17 -102 -10 -102 5 0 19 -3 30 -6 20 -5 23 0 32 58 26 158 26
148 0 146 -12 0 -42 -10 -65 -22z"/>
<path d="M1875 408 c-44 -25 -47 -58 -5 -58 21 0 30 5 30 16 0 18 41 16 47 -3
2 -6 -16 -34 -41 -61 -40 -46 -64 -88 -54 -97 1 -2 41 3 88 11 47 7 86 14 88
14 1 0 2 11 2 25 0 26 -4 27 -72 8 -25 -6 -23 0 11 36 40 42 46 67 27 96 -13
20 -25 25 -59 25 -23 0 -51 -6 -62 -12z"/>
<path d="M1405 375 c-31 -30 -31 -54 -4 -90 18 -22 28 -26 55 -23 37 4 45 -10
19 -32 -12 -10 -19 -10 -27 -2 -14 14 -68 16 -68 3 0 -19 46 -41 85 -41 71 0
110 71 82 150 -21 61 -98 80 -142 35z m85 -34 c7 -15 6 -23 -5 -35 -20 -20
-45 -10 -45 18 0 40 32 50 50 17z"/>
<path d="M1660 387 c-37 -19 -52 -54 -46 -111 7 -66 27 -86 87 -86 39 0 51 4
68 26 24 31 27 80 7 129 -22 52 -65 68 -116 42z m60 -53 c25 -64 1 -133 -34
-99 -16 16 -22 79 -10 109 9 24 33 19 44 -10z"/>
</g>
</svg>
