<?xml version="1.0" encoding="UTF-8" standalone="no"?>
<!DOCTYPE svg PUBLIC "-//W3C//DTD SVG 1.1//EN" "http://www.w3.org/Graphics/SVG/1.1/DTD/svg11.dtd">
<svg width="100%" height="100%" viewBox="0 0 809 809" version="1.1" xmlns="http://www.w3.org/2000/svg" xmlns:xlink="http://www.w3.org/1999/xlink" xml:space="preserve" xmlns:serif="http://www.serif.com/" style="fill-rule:evenodd;clip-rule:evenodd;stroke-linecap:round;stroke-linejoin:round;stroke-miterlimit:2;">
    <g transform="matrix(4.16667,0,0,4.16667,0,0)">
        <rect x="0.259" y="0.678" width="192.756" height="192.756" style="fill:white;"/>
        <path d="M18.848,96.958C18.848,54.228 53.809,19.072 96.735,19.072C139.66,19.072 174.621,54.228 174.621,96.958C174.621,139.884 139.66,175.039 96.735,175.039C53.809,175.039 18.848,139.884 18.848,96.958ZM16.517,96.958C16.517,141.243 52.45,177.176 96.735,177.176C140.825,177.176 176.758,141.243 176.758,96.958C176.758,52.868 140.825,16.935 96.735,16.935C52.45,16.935 16.517,52.868 16.517,96.958Z" style="fill:rgb(17,131,118);"/>
        <path d="M18.848,96.958C18.848,54.228 53.809,19.072 96.735,19.072C139.66,19.072 174.621,54.228 174.621,96.958C174.621,139.884 139.66,175.039 96.735,175.039C53.809,175.039 18.848,139.884 18.848,96.958ZM16.517,96.958C16.517,141.243 52.45,177.176 96.735,177.176C140.825,177.176 176.758,141.243 176.758,96.958C176.758,52.868 140.825,16.935 96.735,16.935C52.45,16.935 16.517,52.868 16.517,96.958Z" style="fill:none;stroke:rgb(17,131,118);stroke-width:1.08px;"/>
        <path d="M149.371,110.166C147.04,112.108 143.933,112.108 141.602,113.857C140.437,115.022 140.631,116.187 141.214,117.741C142.184,119.489 141.602,119.295 140.437,119.878C137.523,120.849 137.523,123.957 133.833,123.568C133.638,123.568 132.862,123.18 133.25,123.762C133.638,124.345 133.833,123.957 134.609,123.957C135.969,124.151 136.358,123.568 137.329,122.986C138.688,121.82 138.494,121.432 140.048,120.655C140.437,120.655 141.408,120.461 141.991,120.461C142.184,120.849 142.184,120.849 142.184,121.237C142.184,122.014 140.825,122.791 140.242,122.986C141.019,123.568 142.184,124.345 141.991,125.122C141.796,125.511 141.796,125.705 141.214,125.899C140.631,126.287 139.077,126.287 137.717,125.122C137.523,125.316 137.329,124.734 136.746,125.316C138.106,126.676 139.854,126.287 140.048,126.676C140.437,126.87 139.077,128.618 139.077,128.812C138.3,131.337 139.271,133.474 138.883,135.805C138.688,137.747 138.106,138.718 136.358,139.884C133.25,142.02 131.113,142.603 127.617,143.185C118.683,143.768 112.856,140.66 106.446,135.805C99.842,130.949 97.317,128.424 95.375,125.705C95.375,124.539 96.152,123.762 95.375,122.403C94.792,122.791 94.986,123.568 94.598,123.957C94.015,124.734 92.85,125.122 91.879,125.122C89.354,124.151 89.16,121.043 87.606,119.295C83.915,115.799 82.944,110.554 84.692,106.282C85.469,104.922 86.634,103.756 88.188,103.174C89.742,102.98 91.684,102.98 92.655,104.728C94.015,105.893 94.792,107.835 95.181,109.584C95.763,110.554 94.986,111.331 95.958,112.108C97.512,112.303 98.871,112.691 100.231,111.72C101.396,111.914 101.396,113.08 102.367,113.662L103.727,114.439C105.28,115.216 107.417,115.216 108.777,114.051C111.302,111.526 110.719,108.807 111.496,106.087C113.827,103.951 115.381,101.037 115.381,98.124C115.186,96.181 114.604,94.434 113.633,92.491C113.827,91.52 114.41,90.743 114.604,89.772C114.992,89.772 115.381,89.772 115.575,89.578C118.294,88.995 120.625,86.664 121.79,84.139L121.984,83.945C124.898,83.751 128.783,82.585 130.336,79.478C130.725,78.118 132.279,79.089 133.25,78.895C134.804,78.701 136.552,77.924 137.523,76.953C138.106,76.758 138.3,77.147 138.494,77.341C139.077,79.672 140.437,81.808 141.214,84.333C142.184,86.082 142.379,87.83 142.184,89.578C142.379,92.297 144.127,95.016 145.292,97.93C146.263,100.843 148.206,103.951 149.371,106.864C149.565,108.03 150.148,109.001 149.371,110.166ZM149.954,104.922C147.817,100.066 145.486,95.988 143.738,90.937C142.379,89.189 143.156,87.247 142.961,85.305C142.184,82.585 141.019,80.255 139.854,77.341C139.465,76.564 140.437,76.37 140.631,75.593C141.214,74.233 140.825,72.68 140.242,71.126C139.854,70.349 140.825,69.96 140.631,69.183C140.631,67.824 139.66,66.852 138.688,66.27C137.329,64.328 136.746,63.356 135.192,61.608L135.192,61.22C135.969,60.637 136.552,59.277 136.552,58.112C136.358,56.947 135.969,55.781 134.804,55.004C132.862,53.839 131.113,55.587 129.559,56.364C128.977,56.753 128.783,56.947 128.2,56.947C128.006,56.753 127.423,56.753 127.034,56.558C126.646,56.947 126.258,57.335 125.675,57.918L127.423,58.501C127.617,58.695 127.617,58.695 127.617,58.889C127.423,59.084 123.344,62.579 123.344,62.579L115.963,69.96L113.827,72.097L107.223,79.672C103.727,83.557 98.677,90.16 95.569,95.016C94.015,97.153 92.461,99.483 90.907,101.814C90.907,102.009 90.519,102.009 90.13,102.009L89.16,102.009C87.411,102.397 86.246,102.786 85.08,103.951C83.138,105.893 82.361,108.418 82.361,110.943C82.361,112.885 82.75,114.634 83.721,116.576C83.332,117.547 82.361,118.518 81.779,119.295L81.39,119.684L80.808,120.072C80.613,120.461 80.225,120.849 79.836,121.237C79.836,121.432 79.836,121.626 80.031,121.82L80.419,121.82C81.973,121.432 82.944,120.266 83.721,119.101L84.498,118.324C84.692,118.324 84.692,118.324 85.08,118.518C85.08,118.518 85.275,118.712 85.275,118.906L85.275,119.489C81.585,123.18 78.477,125.122 74.786,127.453L74.009,127.841L74.786,127.841C76.34,128.035 77.7,127.259 79.059,126.287L80.808,125.511C82.361,124.734 83.915,123.568 85.275,122.209L86.634,121.237C86.829,121.237 87.023,121.237 87.023,121.432L87.217,121.626L88.383,123.957C88.188,125.122 88.188,126.287 88.188,127.259C88.188,129.589 88.577,131.92 89.16,134.251C89.548,136.582 90.13,138.913 90.13,141.243L90.13,141.632C90.13,142.409 89.354,143.38 88.577,143.574C87.217,143.768 85.469,143.768 83.527,143.768C81.196,143.768 78.865,143.962 76.923,144.351C76.34,144.545 75.757,144.739 74.981,144.934C74.398,145.128 73.621,145.322 73.232,145.322L72.844,145.322L72.65,145.516C72.456,145.711 72.261,145.905 72.261,146.099L72.067,146.099C72.067,146.488 72.261,146.682 72.456,146.682C72.65,146.876 72.65,146.876 72.844,146.876C73.427,146.876 74.009,146.682 74.786,146.488C74.981,146.293 75.563,146.099 75.952,146.099C79.836,145.322 83.915,145.516 86.829,145.905C88.188,145.711 90.519,145.711 91.296,143.768C91.684,142.991 91.684,142.214 91.684,141.437C91.684,140.66 91.684,139.884 91.49,139.107L91.102,137.164C91.102,135.999 90.907,134.834 90.519,133.668C90.13,131.532 89.742,129.395 89.742,127.259L89.742,126.093L89.936,126.093C90.13,125.899 90.13,126.093 90.325,126.287C90.713,126.482 90.907,126.676 91.102,126.676C91.296,126.87 91.684,126.87 91.879,126.87C92.267,126.87 92.461,127.064 92.461,127.259C92.655,129.201 93.238,131.143 94.015,132.891C94.404,134.251 94.792,135.61 94.986,136.97C95.569,139.107 96.152,141.437 96.152,143.574C96.152,144.934 95.958,146.293 95.569,147.653C94.598,149.401 92.267,149.401 90.325,149.595L89.548,149.595L84.498,149.207C80.031,148.818 75.757,148.43 71.096,149.207L69.931,149.401C69.348,149.401 68.765,149.595 68.182,149.401C67.988,149.207 67.988,149.012 67.988,148.624L67.988,148.235C68.765,146.488 69.154,144.934 69.154,143.38C69.154,142.214 68.959,141.049 68.377,140.272C67.211,137.941 65.852,136.387 64.298,135.222C62.356,133.28 60.608,131.532 59.054,129.589C58.277,129.589 57.694,129.395 57.5,129.395L56.528,130.366C57.694,131.532 58.665,132.503 60.024,133.862C61.967,134.834 63.521,136.776 64.88,138.135C66.629,140.078 67.017,142.214 66.629,144.545C66.434,147.265 63.909,148.43 62.161,150.372C61.579,151.732 60.996,153.286 62.161,154.645C62.55,156.199 65.269,156.005 65.657,157.17C66.434,160.278 71.484,162.026 72.65,162.026C73.621,162.22 74.592,163.191 74.592,163.191C76.729,164.745 79.254,164.357 80.808,164.163C82.167,163.968 84.692,165.134 86.246,164.94C88.771,163.968 90.713,164.357 93.238,164.163C101.007,164.163 109.748,164.163 117.711,165.134C119.265,164.94 121.013,165.911 122.373,165.328C122.567,164.745 122.373,164.163 122.373,163.774C118.488,157.753 117.906,151.149 120.042,144.545L121.596,144.545C126.646,145.128 131.308,144.545 136.552,141.437C139.271,140.078 140.631,136.582 140.437,134.251C140.437,132.697 139.854,130.755 140.048,129.201C140.242,128.424 140.631,127.259 141.408,126.87C141.602,126.676 142.573,126.093 142.961,125.316C143.544,123.762 142.379,123.18 141.991,122.986C142.961,122.791 143.738,120.849 142.961,119.684C142.379,119.101 141.796,116.964 141.796,116.382C141.602,115.411 141.602,114.439 142.379,113.662C144.515,112.691 146.458,112.497 148.594,111.526C150.148,110.943 150.925,109.389 150.925,108.03L149.954,104.922ZM65.657,153.48C65.463,153.868 65.463,154.257 65.463,154.84C65.269,155.228 64.492,154.84 64.298,154.645C63.327,154.063 63.327,154.451 63.132,153.48C63.132,152.897 63.132,152.314 63.909,151.926C64.686,151.538 65.657,151.149 66.24,151.926C66.24,152.314 65.657,152.897 65.657,153.48ZM70.902,159.889C69.542,159.889 68.765,159.307 68.182,157.753C67.599,156.005 67.406,154.451 67.794,152.509C67.988,152.314 68.182,152.12 68.377,152.314L70.125,151.538C70.513,151.343 71.096,151.343 71.679,151.538L71.873,151.926C71.873,152.897 71.679,153.48 71.679,154.451C71.679,156.782 71.29,157.364 72.067,159.501C71.873,160.084 71.29,159.889 70.902,159.889ZM140.048,75.205C139.854,75.399 139.66,75.593 139.271,75.593C138.688,75.01 138.883,74.622 139.077,74.039C139.077,73.845 139.077,73.845 139.271,73.845C139.66,73.845 139.854,74.039 139.854,74.039C140.048,74.427 140.048,74.816 140.048,75.205ZM92.267,102.786C96.346,95.405 101.396,88.995 106.64,82.197L114.215,73.845C119.46,68.018 125.481,62.191 132.085,57.724C132.862,57.335 133.25,56.17 134.027,56.947L134.804,57.724C135.386,58.307 134.998,59.86 134.416,60.443C134.027,60.637 133.638,61.026 133.25,61.414C134.416,62.774 136.358,65.105 137.911,66.659C138.494,67.241 138.3,68.018 139.465,68.601C140.048,68.795 140.242,69.572 139.854,70.155C138.883,71.514 137.134,71.126 135.581,71.514C130.531,72.68 126.258,74.233 120.625,76.953C116.158,79.478 112.467,82.003 109.165,86.276C107.806,87.83 106.446,88.995 105.28,90.743C102.367,94.628 100.037,98.318 97.705,102.397C96.735,103.563 96.54,104.145 95.375,105.31C94.792,105.893 94.209,104.728 93.821,104.339L93.821,104.145L93.238,104.145C93.044,103.563 92.073,103.368 92.267,102.786ZM137.523,74.233C137.523,75.593 135.581,76.758 134.027,77.147C133.444,77.341 132.667,77.341 132.085,77.341C131.89,77.147 131.89,77.147 131.89,76.953C131.89,76.176 132.085,75.787 132.085,75.205L132.473,75.01C134.027,74.622 135.581,74.233 137.134,74.039C137.329,74.039 137.523,74.039 137.523,74.233ZM122.956,77.924L123.15,77.535C124.121,77.147 125.286,76.564 126.646,76.176L128.006,75.787C128.588,75.399 129.365,75.205 129.559,75.787C129.754,77.535 128.2,80.06 126.063,81.032C125.286,81.226 124.51,81.42 123.538,81.614C123.344,81.42 122.567,81.808 122.567,81.226C122.567,80.255 122.956,78.895 122.956,77.924ZM107.223,113.274C106.64,113.468 103.144,112.108 103.533,112.497C102.756,111.526 104.115,111.137 101.007,109.972L100.231,110.166C100.037,110.166 99.842,110.361 99.454,109.972C99.454,109.389 100.231,109.584 100.231,109.001C101.396,106.476 100.813,104.339 100.813,101.814L101.396,99.678C103.144,97.735 103.144,97.541 104.115,96.376C105.28,94.822 105.475,94.822 106.835,93.656C107.223,93.268 107.611,93.268 107.806,93.462C108.582,94.045 108.582,94.434 108.777,95.016C109.165,97.541 107.611,99.289 105.863,100.649C104.503,101.814 103.338,103.368 103.533,105.116L103.533,105.31C104.31,104.728 104.892,104.533 105.28,103.951C106.057,101.62 108.777,100.649 110.331,98.707C111.108,97.541 110.525,95.599 110.331,94.239C110.331,94.434 112.273,93.268 111.885,93.656C112.661,94.045 112.661,94.822 113.05,95.599C113.827,97.735 113.827,99.872 112.467,101.814L108.777,106.282C108.777,108.807 109.359,111.72 107.223,113.274ZM112.078,90.743C111.108,91.131 110.331,91.326 109.165,90.743C108.971,90.549 108.194,90.16 108.388,89.772C109.165,88.412 110.331,87.635 111.108,86.47L111.496,86.276C113.05,84.333 115.381,82.78 117.711,81.42L119.071,81.032C119.265,80.643 120.042,79.866 120.236,80.643C120.236,82.974 119.265,85.499 116.935,87.247C115.575,88.218 115.186,88.024 113.827,88.218L113.244,89.189C113.05,89.772 112.661,90.355 112.078,90.743ZM99.454,104.339L99.454,105.893C99.259,107.447 98.677,109.389 97.123,110.166C96.346,109.972 96.54,108.807 96.346,108.224C96.929,106.67 98.094,105.505 98.871,103.951L99.259,103.951L99.454,104.339ZM79.059,162.608C78.477,163.385 78.088,162.997 77.506,162.997C75.757,162.608 74.786,161.832 74.204,159.889C73.621,157.17 73.621,154.063 74.204,151.343L74.398,151.149C75.757,150.955 77.506,150.761 78.088,151.149C78.477,151.343 77.506,156.199 77.506,156.199C77.506,157.17 78.088,159.695 78.477,161.055C78.477,161.055 79.448,162.22 79.059,162.608ZM91.49,159.501C91.49,161.443 89.16,162.997 88.188,163.191C87.023,163.58 83.721,163.385 82.944,163.191C81.973,162.803 79.642,158.336 79.836,156.005C79.836,154.063 80.419,151.149 81.196,150.761C81.973,150.566 83.915,150.761 83.915,150.761C84.886,150.761 85.469,150.955 86.246,151.149C86.829,151.149 86.246,151.926 86.634,152.314C86.829,153.286 86.829,154.257 87.411,155.228C88.383,156.976 89.936,157.947 91.49,158.53C91.684,158.724 91.49,159.307 91.49,159.501ZM89.16,152.12C89.16,151.926 89.16,151.732 89.354,151.538L90.907,151.538C92.267,151.538 93.821,152.12 94.986,150.761C95.763,150.761 95.763,151.538 95.958,152.314C96.152,153.091 96.152,153.674 96.152,154.645C95.763,155.228 95.569,156.199 94.792,156.587C93.821,156.976 92.655,156.976 91.684,156.587C90.13,155.616 89.16,154.257 89.16,152.12ZM118.877,145.322C116.935,152.12 115.963,155.422 119.071,162.415C119.071,162.608 119.46,163.58 119.071,163.774C115.769,162.997 114.798,162.608 111.69,162.415C108.777,162.026 103.921,162.803 100.813,162.803C98.094,162.803 95.569,162.997 93.044,163.191C92.267,162.803 92.655,161.832 92.85,161.443C93.044,160.472 93.238,160.084 93.238,158.918C93.627,158.53 94.209,158.724 94.598,158.53C96.346,158.336 97.9,156.782 98.094,155.228C98.677,153.48 98.094,151.538 97.317,149.984C97.317,149.595 96.54,149.207 96.929,148.818C98.871,144.934 97.512,140.855 96.735,136.97C96.152,134.251 94.986,131.337 94.598,128.424C94.598,128.035 94.209,127.453 94.792,127.259L94.986,127.453C97.317,130.172 103.727,135.805 106.057,137.747C108.388,139.69 114.604,143.38 118.683,144.157C119.071,144.545 119.071,144.934 118.877,145.322Z" style="fill:rgb(17,131,118);"/>
        <path d="M149.371,110.166C147.04,112.108 143.933,112.108 141.602,113.857C140.437,115.022 140.631,116.187 141.214,117.741C142.184,119.489 141.602,119.295 140.437,119.878C137.523,120.849 137.523,123.957 133.833,123.568C133.638,123.568 132.862,123.18 133.25,123.762C133.638,124.345 133.833,123.957 134.609,123.957C135.969,124.151 136.358,123.568 137.329,122.986C138.688,121.82 138.494,121.432 140.048,120.655C140.437,120.655 141.408,120.461 141.991,120.461C142.184,120.849 142.184,120.849 142.184,121.237C142.184,122.014 140.825,122.791 140.242,122.986C141.019,123.568 142.184,124.345 141.991,125.122C141.796,125.511 141.796,125.705 141.214,125.899C140.631,126.287 139.077,126.287 137.717,125.122C137.523,125.316 137.329,124.734 136.746,125.316C138.106,126.676 139.854,126.287 140.048,126.676C140.437,126.87 139.077,128.618 139.077,128.812C138.3,131.337 139.271,133.474 138.883,135.805C138.688,137.747 138.106,138.718 136.358,139.884C133.25,142.02 131.113,142.603 127.617,143.185C118.683,143.768 112.856,140.66 106.446,135.805C99.842,130.949 97.317,128.424 95.375,125.705C95.375,124.539 96.152,123.762 95.375,122.403C94.792,122.791 94.986,123.568 94.598,123.957C94.015,124.734 92.85,125.122 91.879,125.122C89.354,124.151 89.16,121.043 87.606,119.295C83.915,115.799 82.944,110.554 84.692,106.282C85.469,104.922 86.634,103.756 88.188,103.174C89.742,102.98 91.684,102.98 92.655,104.728C94.015,105.893 94.792,107.835 95.181,109.584C95.763,110.554 94.986,111.331 95.958,112.108C97.512,112.303 98.871,112.691 100.231,111.72C101.396,111.914 101.396,113.08 102.367,113.662L103.727,114.439C105.28,115.216 107.417,115.216 108.777,114.051C111.302,111.526 110.719,108.807 111.496,106.087C113.827,103.951 115.381,101.037 115.381,98.124C115.186,96.181 114.604,94.434 113.633,92.491C113.827,91.52 114.41,90.743 114.604,89.772C114.992,89.772 115.381,89.772 115.575,89.578C118.294,88.995 120.625,86.664 121.79,84.139L121.984,83.945C124.898,83.751 128.783,82.585 130.336,79.478C130.725,78.118 132.279,79.089 133.25,78.895C134.804,78.701 136.552,77.924 137.523,76.953C138.106,76.758 138.3,77.147 138.494,77.341C139.077,79.672 140.437,81.808 141.214,84.333C142.184,86.082 142.379,87.83 142.184,89.578C142.379,92.297 144.127,95.016 145.292,97.93C146.263,100.843 148.206,103.951 149.371,106.864C149.565,108.03 150.148,109.001 149.371,110.166ZM149.954,104.922C147.817,100.066 145.486,95.988 143.738,90.937C142.379,89.189 143.156,87.247 142.961,85.305C142.184,82.585 141.019,80.255 139.854,77.341C139.465,76.564 140.437,76.37 140.631,75.593C141.214,74.233 140.825,72.68 140.242,71.126C139.854,70.349 140.825,69.96 140.631,69.183C140.631,67.824 139.66,66.852 138.688,66.27C137.329,64.328 136.746,63.356 135.192,61.608L135.192,61.22C135.969,60.637 136.552,59.277 136.552,58.112C136.358,56.947 135.969,55.781 134.804,55.004C132.862,53.839 131.113,55.587 129.559,56.364C128.977,56.753 128.783,56.947 128.2,56.947C128.006,56.753 127.423,56.753 127.034,56.558C126.646,56.947 126.258,57.335 125.675,57.918L127.423,58.501C127.617,58.695 127.617,58.695 127.617,58.889C127.423,59.084 123.344,62.579 123.344,62.579L115.963,69.96L113.827,72.097L107.223,79.672C103.727,83.557 98.677,90.16 95.569,95.016C94.015,97.153 92.461,99.483 90.907,101.814C90.907,102.009 90.519,102.009 90.13,102.009L89.16,102.009C87.411,102.397 86.246,102.786 85.08,103.951C83.138,105.893 82.361,108.418 82.361,110.943C82.361,112.885 82.75,114.634 83.721,116.576C83.332,117.547 82.361,118.518 81.779,119.295L81.39,119.684L80.808,120.072C80.613,120.461 80.225,120.849 79.836,121.237C79.836,121.432 79.836,121.626 80.031,121.82L80.419,121.82C81.973,121.432 82.944,120.266 83.721,119.101L84.498,118.324C84.692,118.324 84.692,118.324 85.08,118.518C85.08,118.518 85.275,118.712 85.275,118.906L85.275,119.489C81.585,123.18 78.477,125.122 74.786,127.453L74.009,127.841L74.786,127.841C76.34,128.035 77.7,127.259 79.059,126.287L80.808,125.511C82.361,124.734 83.915,123.568 85.275,122.209L86.634,121.237C86.829,121.237 87.023,121.237 87.023,121.432L87.217,121.626L88.383,123.957C88.188,125.122 88.188,126.287 88.188,127.259C88.188,129.589 88.577,131.92 89.16,134.251C89.548,136.582 90.13,138.913 90.13,141.243L90.13,141.632C90.13,142.409 89.354,143.38 88.577,143.574C87.217,143.768 85.469,143.768 83.527,143.768C81.196,143.768 78.865,143.962 76.923,144.351C76.34,144.545 75.757,144.739 74.981,144.934C74.398,145.128 73.621,145.322 73.232,145.322L72.844,145.322L72.65,145.516C72.456,145.711 72.261,145.905 72.261,146.099L72.067,146.099C72.067,146.488 72.261,146.682 72.456,146.682C72.65,146.876 72.65,146.876 72.844,146.876C73.427,146.876 74.009,146.682 74.786,146.488C74.981,146.293 75.563,146.099 75.952,146.099C79.836,145.322 83.915,145.516 86.829,145.905C88.188,145.711 90.519,145.711 91.296,143.768C91.684,142.991 91.684,142.214 91.684,141.437C91.684,140.66 91.684,139.884 91.49,139.107L91.102,137.164C91.102,135.999 90.907,134.834 90.519,133.668C90.13,131.532 89.742,129.395 89.742,127.259L89.742,126.093L89.936,126.093C90.13,125.899 90.13,126.093 90.325,126.287C90.713,126.482 90.907,126.676 91.102,126.676C91.296,126.87 91.684,126.87 91.879,126.87C92.267,126.87 92.461,127.064 92.461,127.259C92.655,129.201 93.238,131.143 94.015,132.891C94.404,134.251 94.792,135.61 94.986,136.97C95.569,139.107 96.152,141.437 96.152,143.574C96.152,144.934 95.958,146.293 95.569,147.653C94.598,149.401 92.267,149.401 90.325,149.595L89.548,149.595L84.498,149.207C80.031,148.818 75.757,148.43 71.096,149.207L69.931,149.401C69.348,149.401 68.765,149.595 68.182,149.401C67.988,149.207 67.988,149.012 67.988,148.624L67.988,148.235C68.765,146.488 69.154,144.934 69.154,143.38C69.154,142.214 68.959,141.049 68.377,140.272C67.211,137.941 65.852,136.387 64.298,135.222C62.356,133.28 60.608,131.532 59.054,129.589C58.277,129.589 57.694,129.395 57.5,129.395L56.528,130.366C57.694,131.532 58.665,132.503 60.024,133.862C61.967,134.834 63.521,136.776 64.88,138.135C66.629,140.078 67.017,142.214 66.629,144.545C66.434,147.265 63.909,148.43 62.161,150.372C61.579,151.732 60.996,153.286 62.161,154.645C62.55,156.199 65.269,156.005 65.657,157.17C66.434,160.278 71.484,162.026 72.65,162.026C73.621,162.22 74.592,163.191 74.592,163.191C76.729,164.745 79.254,164.357 80.808,164.163C82.167,163.968 84.692,165.134 86.246,164.94C88.771,163.968 90.713,164.357 93.238,164.163C101.007,164.163 109.748,164.163 117.711,165.134C119.265,164.94 121.013,165.911 122.373,165.328C122.567,164.745 122.373,164.163 122.373,163.774C118.488,157.753 117.906,151.149 120.042,144.545L121.596,144.545C126.646,145.128 131.308,144.545 136.552,141.437C139.271,140.078 140.631,136.582 140.437,134.251C140.437,132.697 139.854,130.755 140.048,129.201C140.242,128.424 140.631,127.259 141.408,126.87C141.602,126.676 142.573,126.093 142.961,125.316C143.544,123.762 142.379,123.18 141.991,122.986C142.961,122.791 143.738,120.849 142.961,119.684C142.379,119.101 141.796,116.964 141.796,116.382C141.602,115.411 141.602,114.439 142.379,113.662C144.515,112.691 146.458,112.497 148.594,111.526C150.148,110.943 150.925,109.389 150.925,108.03L149.954,104.922ZM65.657,153.48C65.463,153.868 65.463,154.257 65.463,154.84C65.269,155.228 64.492,154.84 64.298,154.645C63.327,154.063 63.327,154.451 63.132,153.48C63.132,152.897 63.132,152.314 63.909,151.926C64.686,151.538 65.657,151.149 66.24,151.926C66.24,152.314 65.657,152.897 65.657,153.48ZM70.902,159.889C69.542,159.889 68.765,159.307 68.182,157.753C67.599,156.005 67.406,154.451 67.794,152.509C67.988,152.314 68.182,152.12 68.377,152.314L70.125,151.538C70.513,151.343 71.096,151.343 71.679,151.538L71.873,151.926C71.873,152.897 71.679,153.48 71.679,154.451C71.679,156.782 71.29,157.364 72.067,159.501C71.873,160.084 71.29,159.889 70.902,159.889ZM140.048,75.205C139.854,75.399 139.66,75.593 139.271,75.593C138.688,75.01 138.883,74.622 139.077,74.039C139.077,73.845 139.077,73.845 139.271,73.845C139.66,73.845 139.854,74.039 139.854,74.039C140.048,74.427 140.048,74.816 140.048,75.205ZM92.267,102.786C96.346,95.405 101.396,88.995 106.64,82.197L114.215,73.845C119.46,68.018 125.481,62.191 132.085,57.724C132.862,57.335 133.25,56.17 134.027,56.947L134.804,57.724C135.386,58.307 134.998,59.86 134.416,60.443C134.027,60.637 133.638,61.026 133.25,61.414C134.416,62.774 136.358,65.105 137.911,66.659C138.494,67.241 138.3,68.018 139.465,68.601C140.048,68.795 140.242,69.572 139.854,70.155C138.883,71.514 137.134,71.126 135.581,71.514C130.531,72.68 126.258,74.233 120.625,76.953C116.158,79.478 112.467,82.003 109.165,86.276C107.806,87.83 106.446,88.995 105.28,90.743C102.367,94.628 100.037,98.318 97.705,102.397C96.735,103.563 96.54,104.145 95.375,105.31C94.792,105.893 94.209,104.728 93.821,104.339L93.821,104.145L93.238,104.145C93.044,103.563 92.073,103.368 92.267,102.786ZM137.523,74.233C137.523,75.593 135.581,76.758 134.027,77.147C133.444,77.341 132.667,77.341 132.085,77.341C131.89,77.147 131.89,77.147 131.89,76.953C131.89,76.176 132.085,75.787 132.085,75.205L132.473,75.01C134.027,74.622 135.581,74.233 137.134,74.039C137.329,74.039 137.523,74.039 137.523,74.233ZM122.956,77.924L123.15,77.535C124.121,77.147 125.286,76.564 126.646,76.176L128.006,75.787C128.588,75.399 129.365,75.205 129.559,75.787C129.754,77.535 128.2,80.06 126.063,81.032C125.286,81.226 124.51,81.42 123.538,81.614C123.344,81.42 122.567,81.808 122.567,81.226C122.567,80.255 122.956,78.895 122.956,77.924ZM107.223,113.274C106.64,113.468 103.144,112.108 103.533,112.497C102.756,111.526 104.115,111.137 101.007,109.972L100.231,110.166C100.037,110.166 99.842,110.361 99.454,109.972C99.454,109.389 100.231,109.584 100.231,109.001C101.396,106.476 100.813,104.339 100.813,101.814L101.396,99.678C103.144,97.735 103.144,97.541 104.115,96.376C105.28,94.822 105.475,94.822 106.835,93.656C107.223,93.268 107.611,93.268 107.806,93.462C108.582,94.045 108.582,94.434 108.777,95.016C109.165,97.541 107.611,99.289 105.863,100.649C104.503,101.814 103.338,103.368 103.533,105.116L103.533,105.31C104.31,104.728 104.892,104.533 105.28,103.951C106.057,101.62 108.777,100.649 110.331,98.707C111.108,97.541 110.525,95.599 110.331,94.239C110.331,94.434 112.273,93.268 111.885,93.656C112.661,94.045 112.661,94.822 113.05,95.599C113.827,97.735 113.827,99.872 112.467,101.814L108.777,106.282C108.777,108.807 109.359,111.72 107.223,113.274ZM112.078,90.743C111.108,91.131 110.331,91.326 109.165,90.743C108.971,90.549 108.194,90.16 108.388,89.772C109.165,88.412 110.331,87.635 111.108,86.47L111.496,86.276C113.05,84.333 115.381,82.78 117.711,81.42L119.071,81.032C119.265,80.643 120.042,79.866 120.236,80.643C120.236,82.974 119.265,85.499 116.935,87.247C115.575,88.218 115.186,88.024 113.827,88.218L113.244,89.189C113.05,89.772 112.661,90.355 112.078,90.743ZM99.454,104.339L99.454,105.893C99.259,107.447 98.677,109.389 97.123,110.166C96.346,109.972 96.54,108.807 96.346,108.224C96.929,106.67 98.094,105.505 98.871,103.951L99.259,103.951L99.454,104.339ZM79.059,162.608C78.477,163.385 78.088,162.997 77.506,162.997C75.757,162.608 74.786,161.832 74.204,159.889C73.621,157.17 73.621,154.063 74.204,151.343L74.398,151.149C75.757,150.955 77.506,150.761 78.088,151.149C78.477,151.343 77.506,156.199 77.506,156.199C77.506,157.17 78.088,159.695 78.477,161.055C78.477,161.055 79.448,162.22 79.059,162.608ZM91.49,159.501C91.49,161.443 89.16,162.997 88.188,163.191C87.023,163.58 83.721,163.385 82.944,163.191C81.973,162.803 79.642,158.336 79.836,156.005C79.836,154.063 80.419,151.149 81.196,150.761C81.973,150.566 83.915,150.761 83.915,150.761C84.886,150.761 85.469,150.955 86.246,151.149C86.829,151.149 86.246,151.926 86.634,152.314C86.829,153.286 86.829,154.257 87.411,155.228C88.383,156.976 89.936,157.947 91.49,158.53C91.684,158.724 91.49,159.307 91.49,159.501ZM89.16,152.12C89.16,151.926 89.16,151.732 89.354,151.538L90.907,151.538C92.267,151.538 93.821,152.12 94.986,150.761C95.763,150.761 95.763,151.538 95.958,152.314C96.152,153.091 96.152,153.674 96.152,154.645C95.763,155.228 95.569,156.199 94.792,156.587C93.821,156.976 92.655,156.976 91.684,156.587C90.13,155.616 89.16,154.257 89.16,152.12ZM118.877,145.322C116.935,152.12 115.963,155.422 119.071,162.415C119.071,162.608 119.46,163.58 119.071,163.774C115.769,162.997 114.798,162.608 111.69,162.415C108.777,162.026 103.921,162.803 100.813,162.803C98.094,162.803 95.569,162.997 93.044,163.191C92.267,162.803 92.655,161.832 92.85,161.443C93.044,160.472 93.238,160.084 93.238,158.918C93.627,158.53 94.209,158.724 94.598,158.53C96.346,158.336 97.9,156.782 98.094,155.228C98.677,153.48 98.094,151.538 97.317,149.984C97.317,149.595 96.54,149.207 96.929,148.818C98.871,144.934 97.512,140.855 96.735,136.97C96.152,134.251 94.986,131.337 94.598,128.424C94.598,128.035 94.209,127.453 94.792,127.259L94.986,127.453C97.317,130.172 103.727,135.805 106.057,137.747C108.388,139.69 114.604,143.38 118.683,144.157C119.071,144.545 119.071,144.934 118.877,145.322Z" style="fill:none;stroke:rgb(17,131,118);stroke-width:1.08px;"/>
        <path d="M135.969,86.664C136.358,87.247 136.552,87.635 136.358,88.218C135.581,88.218 135.386,87.247 134.804,86.858C133.638,86.47 132.667,86.858 131.696,87.247C128.977,88.412 126.646,90.549 124.121,91.714C123.927,91.714 123.538,91.714 123.344,91.52C123.733,91.131 124.51,90.937 125.092,90.743C127.811,88.995 130.336,86.082 133.638,85.693C134.609,85.693 135.386,85.887 135.969,86.664Z" style="fill:rgb(17,131,118);"/>
        <path d="M135.969,86.664C136.358,87.247 136.552,87.635 136.358,88.218C135.581,88.218 135.386,87.247 134.804,86.858C133.638,86.47 132.667,86.858 131.696,87.247C128.977,88.412 126.646,90.549 124.121,91.714C123.927,91.714 123.538,91.714 123.344,91.52C123.733,91.131 124.51,90.937 125.092,90.743C127.811,88.995 130.336,86.082 133.638,85.693C134.609,85.693 135.386,85.887 135.969,86.664Z" style="fill:none;stroke:rgb(17,131,118);stroke-width:1.08px;"/>
        <path d="M135.775,91.131C135.581,90.549 135.581,89.383 134.804,89.189C134.609,89.772 134.804,90.16 134.609,90.549C134.416,90.743 134.027,91.131 133.444,90.937C130.142,91.326 127.811,94.045 125.092,95.599C124.121,96.181 123.15,96.376 122.179,96.764C121.984,96.764 121.984,96.958 122.179,97.153C125.286,97.541 128.2,97.735 131.308,98.124L134.609,97.735C134.804,97.153 134.221,96.958 134.221,96.376C134.804,95.016 134.804,93.462 134.416,92.103C134.804,91.52 135.775,92.103 135.775,91.131ZM133.444,96.376C132.862,96.958 132.279,96.376 131.696,96.57C130.336,96.376 128.2,96.764 126.646,96.57C126.452,96.376 126.258,96.181 126.452,95.988C126.646,95.599 127.229,95.599 127.617,95.211C129.365,94.239 130.919,93.268 132.667,92.88C133.056,92.88 133.444,93.074 133.444,93.268C133.638,94.239 133.444,95.599 133.444,96.376Z" style="fill:rgb(17,131,118);"/>
        <path d="M135.775,91.131C135.581,90.549 135.581,89.383 134.804,89.189C134.609,89.772 134.804,90.16 134.609,90.549C134.416,90.743 134.027,91.131 133.444,90.937C130.142,91.326 127.811,94.045 125.092,95.599C124.121,96.181 123.15,96.376 122.179,96.764C121.984,96.764 121.984,96.958 122.179,97.153C125.286,97.541 128.2,97.735 131.308,98.124L134.609,97.735C134.804,97.153 134.221,96.958 134.221,96.376C134.804,95.016 134.804,93.462 134.416,92.103C134.804,91.52 135.775,92.103 135.775,91.131ZM133.444,96.376C132.862,96.958 132.279,96.376 131.696,96.57C130.336,96.376 128.2,96.764 126.646,96.57C126.452,96.376 126.258,96.181 126.452,95.988C126.646,95.599 127.229,95.599 127.617,95.211C129.365,94.239 130.919,93.268 132.667,92.88C133.056,92.88 133.444,93.074 133.444,93.268C133.638,94.239 133.444,95.599 133.444,96.376Z" style="fill:none;stroke:rgb(17,131,118);stroke-width:1.08px;"/>
        <path d="M137.523,106.282C137.523,106.282 137.717,105.893 137.911,105.893C138.106,106.087 138.106,106.282 138.106,106.476C138.106,107.058 137.911,107.641 137.911,108.224C137.523,109.001 137.523,109.778 137.523,110.554L137.523,111.331C138.106,111.914 138.688,112.108 139.465,111.914L140.825,111.137C141.991,110.361 142.961,109.778 145.098,109.195L145.098,109.972C145.098,110.166 143.156,110.943 143.156,110.943C141.602,111.526 140.048,112.108 138.688,112.885C138.3,113.08 137.911,112.885 137.523,112.691L137.329,112.691C136.746,111.914 136.746,111.137 136.746,110.361C136.746,109.778 136.746,109.001 136.94,108.418C137.134,107.835 137.329,107.253 137.329,106.476L137.523,106.282Z" style="fill:rgb(17,131,118);"/>
        <path d="M137.523,106.282C137.523,106.282 137.717,105.893 137.911,105.893C138.106,106.087 138.106,106.282 138.106,106.476C138.106,107.058 137.911,107.641 137.911,108.224C137.523,109.001 137.523,109.778 137.523,110.554L137.523,111.331C138.106,111.914 138.688,112.108 139.465,111.914L140.825,111.137C141.991,110.361 142.961,109.778 145.098,109.195L145.098,109.972C145.098,110.166 143.156,110.943 143.156,110.943C141.602,111.526 140.048,112.108 138.688,112.885C138.3,113.08 137.911,112.885 137.523,112.691L137.329,112.691C136.746,111.914 136.746,111.137 136.746,110.361C136.746,109.778 136.746,109.001 136.94,108.418C137.134,107.835 137.329,107.253 137.329,106.476L137.523,106.282Z" style="fill:none;stroke:rgb(17,131,118);stroke-width:1.08px;"/>
        <path d="M91.49,105.699C92.655,107.835 91.49,109.972 91.49,112.303C91.684,112.885 93.044,112.885 92.655,113.662C92.267,114.051 91.879,114.051 91.684,113.662C90.907,113.468 90.713,113.08 90.713,112.497C90.519,110.361 92.073,108.03 90.713,106.282C90.325,105.699 89.548,105.505 89.16,105.31C87.8,105.505 87.217,107.058 86.829,108.03C86.052,110.554 85.857,113.468 88.188,115.411C89.548,116.187 91.102,117.159 91.296,118.906C91.49,119.101 91.879,119.489 92.267,119.295C92.655,119.295 92.655,118.129 93.238,118.518L93.432,119.101C93.238,119.489 93.238,120.461 92.461,120.461C92.073,120.461 91.684,120.266 91.296,120.072C90.325,119.101 91.102,117.741 89.742,117.353C87.411,116.576 85.857,114.245 85.663,111.914C85.469,109.778 85.663,107.253 87.606,105.505C88.383,104.922 89.16,104.533 90.13,104.922C90.713,104.922 91.296,105.31 91.49,105.699Z" style="fill:rgb(17,131,118);"/>
        <path d="M91.49,105.699C92.655,107.835 91.49,109.972 91.49,112.303C91.684,112.885 93.044,112.885 92.655,113.662C92.267,114.051 91.879,114.051 91.684,113.662C90.907,113.468 90.713,113.08 90.713,112.497C90.519,110.361 92.073,108.03 90.713,106.282C90.325,105.699 89.548,105.505 89.16,105.31C87.8,105.505 87.217,107.058 86.829,108.03C86.052,110.554 85.857,113.468 88.188,115.411C89.548,116.187 91.102,117.159 91.296,118.906C91.49,119.101 91.879,119.489 92.267,119.295C92.655,119.295 92.655,118.129 93.238,118.518L93.432,119.101C93.238,119.489 93.238,120.461 92.461,120.461C92.073,120.461 91.684,120.266 91.296,120.072C90.325,119.101 91.102,117.741 89.742,117.353C87.411,116.576 85.857,114.245 85.663,111.914C85.469,109.778 85.663,107.253 87.606,105.505C88.383,104.922 89.16,104.533 90.13,104.922C90.713,104.922 91.296,105.31 91.49,105.699Z" style="fill:none;stroke:rgb(17,131,118);stroke-width:1.08px;"/>
        <path d="M62.744,121.626C58.471,123.568 57.305,128.618 57.111,128.812L57.111,129.201L57.5,129.395C57.694,129.395 61.579,130.755 66.434,128.424C71.096,126.093 72.067,121.237 72.067,121.237L72.261,120.655L71.873,120.461C71.679,120.461 66.823,119.684 62.744,121.626ZM63.132,122.597C66.24,121.237 69.736,121.237 71.096,121.432C70.707,122.791 69.348,125.899 65.852,127.453C62.356,129.201 59.442,128.812 58.277,128.618C58.665,127.259 60.024,123.957 63.132,122.597Z" style="fill:rgb(17,131,118);"/>
        <path d="M62.744,121.626C58.471,123.568 57.305,128.618 57.111,128.812L57.111,129.201L57.5,129.395C57.694,129.395 61.579,130.755 66.434,128.424C71.096,126.093 72.067,121.237 72.067,121.237L72.261,120.655L71.873,120.461C71.679,120.461 66.823,119.684 62.744,121.626ZM63.132,122.597C66.24,121.237 69.736,121.237 71.096,121.432C70.707,122.791 69.348,125.899 65.852,127.453C62.356,129.201 59.442,128.812 58.277,128.618C58.665,127.259 60.024,123.957 63.132,122.597Z" style="fill:none;stroke:rgb(17,131,118);stroke-width:1.08px;"/>
        <path d="M67.017,112.303C62.744,114.245 61.19,119.101 61.19,119.295L60.996,119.878L61.579,119.878C61.579,119.878 65.463,121.237 70.319,118.906C75.175,116.576 76.146,111.914 76.146,111.72L76.146,111.331L75.757,111.137C75.563,111.137 71.096,110.361 67.017,112.303ZM67.406,113.274C70.319,111.72 73.621,111.914 74.981,112.108C74.592,113.274 73.427,116.187 69.736,117.936C66.434,119.684 63.327,119.295 62.356,119.101C62.744,117.741 64.298,114.439 67.406,113.274Z" style="fill:rgb(17,131,118);"/>
        <path d="M67.017,112.303C62.744,114.245 61.19,119.101 61.19,119.295L60.996,119.878L61.579,119.878C61.579,119.878 65.463,121.237 70.319,118.906C75.175,116.576 76.146,111.914 76.146,111.72L76.146,111.331L75.757,111.137C75.563,111.137 71.096,110.361 67.017,112.303ZM67.406,113.274C70.319,111.72 73.621,111.914 74.981,112.108C74.592,113.274 73.427,116.187 69.736,117.936C66.434,119.684 63.327,119.295 62.356,119.101C62.744,117.741 64.298,114.439 67.406,113.274Z" style="fill:none;stroke:rgb(17,131,118);stroke-width:1.08px;"/>
        <path d="M72.456,103.174C68.182,104.922 66.434,109.972 66.24,110.166L66.24,110.554L66.629,110.749C66.823,110.943 70.707,111.914 75.563,109.584C80.225,107.447 81.39,102.98 81.39,102.786L81.39,102.397L81.002,102.203C80.808,102.009 76.534,101.426 72.456,103.174ZM72.844,104.145C75.757,102.786 79.059,102.98 80.225,103.174C79.836,104.145 78.477,107.058 74.981,108.807C71.679,110.361 68.571,110.166 67.406,109.972C67.988,108.612 69.736,105.505 72.844,104.145Z" style="fill:rgb(17,131,118);"/>
        <path d="M72.456,103.174C68.182,104.922 66.434,109.972 66.24,110.166L66.24,110.554L66.629,110.749C66.823,110.943 70.707,111.914 75.563,109.584C80.225,107.447 81.39,102.98 81.39,102.786L81.39,102.397L81.002,102.203C80.808,102.009 76.534,101.426 72.456,103.174ZM72.844,104.145C75.757,102.786 79.059,102.98 80.225,103.174C79.836,104.145 78.477,107.058 74.981,108.807C71.679,110.361 68.571,110.166 67.406,109.972C67.988,108.612 69.736,105.505 72.844,104.145Z" style="fill:none;stroke:rgb(17,131,118);stroke-width:1.08px;"/>
        <path d="M77.7,94.239C73.621,95.988 71.484,100.843 71.484,101.037L71.29,101.62L71.873,101.814C71.873,101.814 75.757,102.786 80.613,100.649C85.469,98.318 86.634,94.045 86.634,93.851L86.634,93.462L86.246,93.268C86.052,93.268 81.973,92.491 77.7,94.239ZM78.282,95.211C81.196,93.851 84.304,94.045 85.469,94.239C85.08,95.405 83.721,98.124 80.031,99.678C76.729,101.232 73.815,101.037 72.65,100.843C73.232,99.678 75.175,96.376 78.282,95.211Z" style="fill:rgb(17,131,118);"/>
        <path d="M77.7,94.239C73.621,95.988 71.484,100.843 71.484,101.037L71.29,101.62L71.873,101.814C71.873,101.814 75.757,102.786 80.613,100.649C85.469,98.318 86.634,94.045 86.634,93.851L86.634,93.462L86.246,93.268C86.052,93.268 81.973,92.491 77.7,94.239ZM78.282,95.211C81.196,93.851 84.304,94.045 85.469,94.239C85.08,95.405 83.721,98.124 80.031,99.678C76.729,101.232 73.815,101.037 72.65,100.843C73.232,99.678 75.175,96.376 78.282,95.211Z" style="fill:none;stroke:rgb(17,131,118);stroke-width:1.08px;"/>
        <path d="M85.275,85.305C81.196,87.053 78.865,91.714 78.671,92.103L78.282,92.491L79.059,92.685C79.059,92.88 82.944,93.656 87.8,91.52C92.655,89.189 93.821,85.11 93.821,85.11L94.015,84.528L93.432,84.333C93.238,84.333 89.548,83.557 85.275,85.305ZM85.663,86.082C88.771,84.916 91.49,85.11 92.655,85.305C92.267,86.47 90.907,88.995 87.411,90.549C83.915,92.103 81.196,92.103 79.836,91.714C80.613,90.549 82.75,87.441 85.663,86.082Z" style="fill:rgb(17,131,118);"/>
        <path d="M85.275,85.305C81.196,87.053 78.865,91.714 78.671,92.103L78.282,92.491L79.059,92.685C79.059,92.88 82.944,93.656 87.8,91.52C92.655,89.189 93.821,85.11 93.821,85.11L94.015,84.528L93.432,84.333C93.238,84.333 89.548,83.557 85.275,85.305ZM85.663,86.082C88.771,84.916 91.49,85.11 92.655,85.305C92.267,86.47 90.907,88.995 87.411,90.549C83.915,92.103 81.196,92.103 79.836,91.714C80.613,90.549 82.75,87.441 85.663,86.082Z" style="fill:none;stroke:rgb(17,131,118);stroke-width:1.08px;"/>
        <path d="M93.627,76.564C89.354,78.312 86.829,82.974 86.634,83.362L86.246,83.945L87.023,84.139C87.023,84.139 90.907,84.722 95.763,82.78C100.813,80.643 101.784,76.564 101.979,76.564L101.979,75.982L101.396,75.787C101.396,75.787 97.9,75.01 93.627,76.564ZM94.015,77.535C96.929,76.37 99.648,76.564 100.813,76.758C100.231,77.73 98.871,80.255 95.375,81.808C92.073,83.168 89.16,83.168 87.8,83.168C88.771,81.808 90.907,78.701 94.015,77.535Z" style="fill:rgb(17,131,118);"/>
        <path d="M93.627,76.564C89.354,78.312 86.829,82.974 86.634,83.362L86.246,83.945L87.023,84.139C87.023,84.139 90.907,84.722 95.763,82.78C100.813,80.643 101.784,76.564 101.979,76.564L101.979,75.982L101.396,75.787C101.396,75.787 97.9,75.01 93.627,76.564ZM94.015,77.535C96.929,76.37 99.648,76.564 100.813,76.758C100.231,77.73 98.871,80.255 95.375,81.808C92.073,83.168 89.16,83.168 87.8,83.168C88.771,81.808 90.907,78.701 94.015,77.535Z" style="fill:none;stroke:rgb(17,131,118);stroke-width:1.08px;"/>
        <path d="M102.367,68.407C98.094,70.155 95.375,74.816 95.181,75.01L94.792,75.593L95.569,75.787C95.763,75.787 99.454,76.37 104.31,74.427C109.165,72.291 110.525,68.601 110.525,68.407L110.719,67.824L110.136,67.824C109.942,67.824 106.64,66.852 102.367,68.407ZM102.756,69.378C105.669,68.212 108.194,68.407 109.359,68.601C108.777,69.572 107.417,71.903 103.921,73.457C100.619,74.816 97.9,75.01 96.54,74.816C97.317,73.457 99.842,70.543 102.756,69.378Z" style="fill:rgb(17,131,118);"/>
        <path d="M102.367,68.407C98.094,70.155 95.375,74.816 95.181,75.01L94.792,75.593L95.569,75.787C95.763,75.787 99.454,76.37 104.31,74.427C109.165,72.291 110.525,68.601 110.525,68.407L110.719,67.824L110.136,67.824C109.942,67.824 106.64,66.852 102.367,68.407ZM102.756,69.378C105.669,68.212 108.194,68.407 109.359,68.601C108.777,69.572 107.417,71.903 103.921,73.457C100.619,74.816 97.9,75.01 96.54,74.816C97.317,73.457 99.842,70.543 102.756,69.378Z" style="fill:none;stroke:rgb(17,131,118);stroke-width:1.08px;"/>
        <path d="M111.496,60.831C107.417,62.579 104.31,67.241 104.115,67.435L103.533,68.018L104.31,68.212C104.503,68.212 108.388,68.601 113.244,66.659C118.294,64.716 119.46,61.22 119.46,60.831L119.654,60.443L119.071,60.443C119.071,60.249 115.963,59.277 111.496,60.831ZM112.078,61.803C114.798,60.637 117.129,60.831 118.294,61.22C117.711,62.191 116.352,64.328 112.856,65.687C109.554,67.047 106.835,67.241 105.475,67.241C106.446,65.882 108.971,62.968 112.078,61.803Z" style="fill:rgb(17,131,118);"/>
        <path d="M111.496,60.831C107.417,62.579 104.31,67.241 104.115,67.435L103.533,68.018L104.31,68.212C104.503,68.212 108.388,68.601 113.244,66.659C118.294,64.716 119.46,61.22 119.46,60.831L119.654,60.443L119.071,60.443C119.071,60.249 115.963,59.277 111.496,60.831ZM112.078,61.803C114.798,60.637 117.129,60.831 118.294,61.22C117.711,62.191 116.352,64.328 112.856,65.687C109.554,67.047 106.835,67.241 105.475,67.241C106.446,65.882 108.971,62.968 112.078,61.803Z" style="fill:none;stroke:rgb(17,131,118);stroke-width:1.08px;"/>
        <path d="M121.013,54.228C116.74,55.781 113.244,60.443 113.05,60.637L112.661,61.22L113.438,61.414C113.633,61.414 117.517,61.608 122.373,59.86C127.229,57.724 128.588,54.422 128.588,54.228L128.783,53.839L128.2,53.645C128.2,53.645 125.286,52.674 121.013,54.228ZM121.402,55.004C124.121,54.033 126.452,54.228 127.423,54.422C126.84,55.393 125.286,57.53 121.79,58.889C118.683,60.054 115.963,60.443 114.604,60.443C115.575,59.084 118.294,56.17 121.402,55.004Z" style="fill:rgb(17,131,118);"/>
        <path d="M121.013,54.228C116.74,55.781 113.244,60.443 113.05,60.637L112.661,61.22L113.438,61.414C113.633,61.414 117.517,61.608 122.373,59.86C127.229,57.724 128.588,54.422 128.588,54.228L128.783,53.839L128.2,53.645C128.2,53.645 125.286,52.674 121.013,54.228ZM121.402,55.004C124.121,54.033 126.452,54.228 127.423,54.422C126.84,55.393 125.286,57.53 121.79,58.889C118.683,60.054 115.963,60.443 114.604,60.443C115.575,59.084 118.294,56.17 121.402,55.004Z" style="fill:none;stroke:rgb(17,131,118);stroke-width:1.08px;"/>
        <path d="M56.14,112.108C55.946,112.303 53.033,116.187 52.838,120.655C52.45,125.316 56.14,128.812 56.334,129.007L56.723,129.395L57.111,129.007C57.111,128.812 60.219,126.093 60.413,120.655C60.608,115.411 56.917,112.108 56.723,112.108L56.334,111.72L56.14,112.108ZM53.615,121.237C53.615,121.043 53.809,120.849 53.809,120.655C54.003,117.353 55.752,114.245 56.528,113.274C57.5,114.245 59.442,116.576 59.442,120.266L59.442,120.655C59.248,124.539 57.5,127.064 56.723,127.841C55.946,127.064 53.615,124.345 53.615,121.237Z" style="fill:rgb(17,131,118);"/>
        <path d="M56.14,112.108C55.946,112.303 53.033,116.187 52.838,120.655C52.45,125.316 56.14,128.812 56.334,129.007L56.723,129.395L57.111,129.007C57.111,128.812 60.219,126.093 60.413,120.655C60.608,115.411 56.917,112.108 56.723,112.108L56.334,111.72L56.14,112.108ZM53.615,121.237C53.615,121.043 53.809,120.849 53.809,120.655C54.003,117.353 55.752,114.245 56.528,113.274C57.5,114.245 59.442,116.576 59.442,120.266L59.442,120.655C59.248,124.539 57.5,127.064 56.723,127.841C55.946,127.064 53.615,124.345 53.615,121.237Z" style="fill:none;stroke:rgb(17,131,118);stroke-width:1.08px;"/>
        <path d="M61.967,102.009C61.773,102.009 59.442,104.728 58.471,108.418C58.471,109.001 58.277,109.584 58.277,110.166C57.694,114.634 60.801,118.324 60.996,118.324L61.384,118.906L61.773,118.518C61.773,118.324 64.88,115.799 65.463,110.554C66.24,105.31 62.938,102.009 62.744,102.009L62.356,101.62L61.967,102.009ZM59.054,111.137C59.054,110.943 59.054,110.554 59.248,110.166C59.248,109.584 59.248,109.195 59.442,108.807C60.219,105.893 61.579,103.951 62.356,103.174C63.132,103.951 64.686,106.087 64.686,109.389C64.686,109.584 64.686,109.972 64.492,110.361C64.104,114.245 62.161,116.576 61.384,117.353C60.801,116.382 59.054,114.051 59.054,111.137Z" style="fill:rgb(17,131,118);"/>
        <path d="M61.967,102.009C61.773,102.009 59.442,104.728 58.471,108.418C58.471,109.001 58.277,109.584 58.277,110.166C57.694,114.634 60.801,118.324 60.996,118.324L61.384,118.906L61.773,118.518C61.773,118.324 64.88,115.799 65.463,110.554C66.24,105.31 62.938,102.009 62.744,102.009L62.356,101.62L61.967,102.009ZM59.054,111.137C59.054,110.943 59.054,110.554 59.248,110.166C59.248,109.584 59.248,109.195 59.442,108.807C60.219,105.893 61.579,103.951 62.356,103.174C63.132,103.951 64.686,106.087 64.686,109.389C64.686,109.584 64.686,109.972 64.492,110.361C64.104,114.245 62.161,116.576 61.384,117.353C60.801,116.382 59.054,114.051 59.054,111.137Z" style="fill:none;stroke:rgb(17,131,118);stroke-width:1.08px;"/>
        <path d="M68.571,92.491C68.571,92.491 66.046,94.822 64.686,98.512C64.686,99.095 64.492,99.483 64.298,100.066C63.521,104.339 66.24,108.224 66.434,108.418L66.629,108.807L67.017,108.612C67.211,108.418 70.319,105.893 71.29,101.037C72.456,95.988 69.542,92.491 69.348,92.491L68.959,92.103L68.571,92.491ZM65.075,101.814C65.075,101.232 65.269,100.843 65.269,100.26C65.463,99.872 65.463,99.289 65.657,98.901C66.629,96.181 68.182,94.434 68.959,93.656C69.542,94.434 70.513,96.181 70.513,98.901C70.513,99.483 70.513,100.066 70.319,100.843C69.736,104.339 67.794,106.476 67.017,107.447C66.434,106.476 65.075,104.339 65.075,101.814Z" style="fill:rgb(17,131,118);"/>
        <path d="M68.571,92.491C68.571,92.491 66.046,94.822 64.686,98.512C64.686,99.095 64.492,99.483 64.298,100.066C63.521,104.339 66.24,108.224 66.434,108.418L66.629,108.807L67.017,108.612C67.211,108.418 70.319,105.893 71.29,101.037C72.456,95.988 69.542,92.491 69.348,92.491L68.959,92.103L68.571,92.491ZM65.075,101.814C65.075,101.232 65.269,100.843 65.269,100.26C65.463,99.872 65.463,99.289 65.657,98.901C66.629,96.181 68.182,94.434 68.959,93.656C69.542,94.434 70.513,96.181 70.513,98.901C70.513,99.483 70.513,100.066 70.319,100.843C69.736,104.339 67.794,106.476 67.017,107.447C66.434,106.476 65.075,104.339 65.075,101.814Z" style="fill:none;stroke:rgb(17,131,118);stroke-width:1.08px;"/>
        <path d="M75.952,83.557C75.757,83.557 73.232,85.693 71.679,89.189C71.484,89.772 71.29,90.16 71.096,90.743C70.125,95.016 72.261,99.095 72.456,99.095L72.65,99.678L73.232,99.289C73.232,99.289 76.534,96.958 77.7,92.103C79.254,87.053 76.729,83.751 76.534,83.557L76.146,83.168L75.952,83.557ZM71.873,93.074C71.873,92.491 71.873,91.714 72.067,90.937C72.261,90.549 72.456,89.966 72.65,89.772C73.621,87.053 75.369,85.305 76.146,84.528C76.534,85.305 77.311,86.858 77.311,88.995C77.311,89.966 77.117,90.743 76.923,91.714C75.952,95.211 74.009,97.153 73.038,98.124C72.65,97.153 71.873,95.405 71.873,93.074Z" style="fill:rgb(17,131,118);"/>
        <path d="M75.952,83.557C75.757,83.557 73.232,85.693 71.679,89.189C71.484,89.772 71.29,90.16 71.096,90.743C70.125,95.016 72.261,99.095 72.456,99.095L72.65,99.678L73.232,99.289C73.232,99.289 76.534,96.958 77.7,92.103C79.254,87.053 76.729,83.751 76.534,83.557L76.146,83.168L75.952,83.557ZM71.873,93.074C71.873,92.491 71.873,91.714 72.067,90.937C72.261,90.549 72.456,89.966 72.65,89.772C73.621,87.053 75.369,85.305 76.146,84.528C76.534,85.305 77.311,86.858 77.311,88.995C77.311,89.966 77.117,90.743 76.923,91.714C75.952,95.211 74.009,97.153 73.038,98.124C72.65,97.153 71.873,95.405 71.873,93.074Z" style="fill:none;stroke:rgb(17,131,118);stroke-width:1.08px;"/>
        <path d="M83.721,75.205C83.721,75.205 81.002,76.953 79.059,80.643C79.059,81.032 78.865,81.42 78.477,82.003C77.311,86.082 78.865,90.16 79.059,90.355L79.254,90.937L79.836,90.549C79.836,90.549 83.138,88.412 84.886,83.557C86.829,78.895 84.498,75.399 84.498,75.399L84.304,74.816L83.721,75.205ZM79.059,85.305C79.059,84.333 79.254,83.362 79.642,82.391C79.642,81.808 79.836,81.42 80.031,81.032C81.39,78.507 83.138,76.953 83.915,76.37C84.304,76.953 84.692,78.118 84.692,79.866C84.692,80.837 84.498,82.003 83.915,83.362C82.75,86.664 80.613,88.606 79.642,89.383C79.448,88.606 79.059,87.247 79.059,85.305Z" style="fill:rgb(17,131,118);"/>
        <path d="M83.721,75.205C83.721,75.205 81.002,76.953 79.059,80.643C79.059,81.032 78.865,81.42 78.477,82.003C77.311,86.082 78.865,90.16 79.059,90.355L79.254,90.937L79.836,90.549C79.836,90.549 83.138,88.412 84.886,83.557C86.829,78.895 84.498,75.399 84.498,75.399L84.304,74.816L83.721,75.205ZM79.059,85.305C79.059,84.333 79.254,83.362 79.642,82.391C79.642,81.808 79.836,81.42 80.031,81.032C81.39,78.507 83.138,76.953 83.915,76.37C84.304,76.953 84.692,78.118 84.692,79.866C84.692,80.837 84.498,82.003 83.915,83.362C82.75,86.664 80.613,88.606 79.642,89.383C79.448,88.606 79.059,87.247 79.059,85.305Z" style="fill:none;stroke:rgb(17,131,118);stroke-width:1.08px;"/>
        <path d="M92.267,67.435C92.073,67.629 89.354,68.795 87.217,72.485C87.023,73.068 86.829,73.457 86.634,74.039C85.08,77.924 86.052,82.003 86.246,82.197L86.246,82.974L87.023,82.585C87.023,82.585 90.325,80.449 92.461,75.982C94.792,71.32 93.044,67.824 92.85,67.629L92.655,67.241L92.267,67.435ZM86.829,78.701C86.829,77.341 87.023,75.787 87.606,74.233C87.8,73.845 87.8,73.457 88.188,73.068C89.548,70.543 91.49,69.183 92.267,68.601C92.461,69.183 92.655,69.96 92.655,71.126C92.655,72.485 92.461,73.845 91.684,75.593C90.13,78.701 87.994,80.449 87.023,81.226C86.829,80.643 86.829,79.672 86.829,78.701Z" style="fill:rgb(17,131,118);"/>
        <path d="M92.267,67.435C92.073,67.629 89.354,68.795 87.217,72.485C87.023,73.068 86.829,73.457 86.634,74.039C85.08,77.924 86.052,82.003 86.246,82.197L86.246,82.974L87.023,82.585C87.023,82.585 90.325,80.449 92.461,75.982C94.792,71.32 93.044,67.824 92.85,67.629L92.655,67.241L92.267,67.435ZM86.829,78.701C86.829,77.341 87.023,75.787 87.606,74.233C87.8,73.845 87.8,73.457 88.188,73.068C89.548,70.543 91.49,69.183 92.267,68.601C92.461,69.183 92.655,69.96 92.655,71.126C92.655,72.485 92.461,73.845 91.684,75.593C90.13,78.701 87.994,80.449 87.023,81.226C86.829,80.643 86.829,79.672 86.829,78.701Z" style="fill:none;stroke:rgb(17,131,118);stroke-width:1.08px;"/>
        <path d="M101.202,60.443C101.007,60.443 98.094,61.414 95.763,65.105C95.569,65.493 95.375,65.882 94.986,66.464C93.432,70.155 93.821,74.622 93.821,74.816L94.015,75.399L94.598,75.01C94.792,75.01 98.094,73.068 100.813,68.795C103.338,64.328 101.979,60.831 101.784,60.637L101.59,60.054L101.202,60.443ZM94.792,73.068C94.792,71.514 94.986,68.989 95.958,66.852C96.152,66.27 96.346,66.075 96.54,65.687C98.288,63.162 100.231,61.997 101.007,61.414C101.202,61.997 101.202,62.385 101.202,63.162C101.202,64.522 101.007,66.27 99.842,68.212C98.094,71.32 95.958,73.068 94.792,73.845L94.792,73.068Z" style="fill:rgb(17,131,118);"/>
        <path d="M101.202,60.443C101.007,60.443 98.094,61.414 95.763,65.105C95.569,65.493 95.375,65.882 94.986,66.464C93.432,70.155 93.821,74.622 93.821,74.816L94.015,75.399L94.598,75.01C94.792,75.01 98.094,73.068 100.813,68.795C103.338,64.328 101.979,60.831 101.784,60.637L101.59,60.054L101.202,60.443ZM94.792,73.068C94.792,71.514 94.986,68.989 95.958,66.852C96.152,66.27 96.346,66.075 96.54,65.687C98.288,63.162 100.231,61.997 101.007,61.414C101.202,61.997 101.202,62.385 101.202,63.162C101.202,64.522 101.007,66.27 99.842,68.212C98.094,71.32 95.958,73.068 94.792,73.845L94.792,73.068Z" style="fill:none;stroke:rgb(17,131,118);stroke-width:1.08px;"/>
        <path d="M110.719,53.839C110.525,53.839 107.611,54.616 104.892,58.307C104.503,58.501 104.31,59.084 104.115,59.472C102.173,63.162 101.979,67.629 101.979,67.824L101.979,68.601L102.756,68.212C102.95,68.018 106.446,66.464 109.359,62.191C112.273,57.918 111.302,54.228 111.302,54.228L111.108,53.645L110.719,53.839ZM104.892,60.054C105.086,59.666 105.475,59.084 105.669,58.889C107.417,56.364 109.554,55.393 110.331,55.004C110.525,55.199 110.525,55.393 110.525,55.781C110.525,57.141 110.136,59.277 108.388,61.608C106.446,64.522 104.31,66.075 103.144,66.852C103.338,65.493 103.533,62.385 104.892,60.054Z" style="fill:rgb(17,131,118);"/>
        <path d="M110.719,53.839C110.525,53.839 107.611,54.616 104.892,58.307C104.503,58.501 104.31,59.084 104.115,59.472C102.173,63.162 101.979,67.629 101.979,67.824L101.979,68.601L102.756,68.212C102.95,68.018 106.446,66.464 109.359,62.191C112.273,57.918 111.302,54.228 111.302,54.228L111.108,53.645L110.719,53.839ZM104.892,60.054C105.086,59.666 105.475,59.084 105.669,58.889C107.417,56.364 109.554,55.393 110.331,55.004C110.525,55.199 110.525,55.393 110.525,55.781C110.525,57.141 110.136,59.277 108.388,61.608C106.446,64.522 104.31,66.075 103.144,66.852C103.338,65.493 103.533,62.385 104.892,60.054Z" style="fill:none;stroke:rgb(17,131,118);stroke-width:1.08px;"/>
        <path d="M120.625,47.818C120.236,47.818 117.323,48.401 114.41,51.897C111.302,55.393 110.719,61.22 110.719,61.414L110.525,62.191L111.302,61.997C111.496,61.803 114.992,60.249 118.294,56.17C121.596,52.091 121.013,48.401 121.013,48.206L121.013,47.818L120.625,47.818ZM115.186,52.674C117.129,50.149 119.265,49.372 120.042,48.983C120.042,50.149 119.848,52.674 117.517,55.587C115.381,58.307 113.05,59.86 111.885,60.637C112.078,58.889 113.05,55.004 115.186,52.674Z" style="fill:rgb(17,131,118);"/>
        <path d="M120.625,47.818C120.236,47.818 117.323,48.401 114.41,51.897C111.302,55.393 110.719,61.22 110.719,61.414L110.525,62.191L111.302,61.997C111.496,61.803 114.992,60.249 118.294,56.17C121.596,52.091 121.013,48.401 121.013,48.206L121.013,47.818L120.625,47.818ZM115.186,52.674C117.129,50.149 119.265,49.372 120.042,48.983C120.042,50.149 119.848,52.674 117.517,55.587C115.381,58.307 113.05,59.86 111.885,60.637C112.078,58.889 113.05,55.004 115.186,52.674Z" style="fill:none;stroke:rgb(17,131,118);stroke-width:1.08px;"/>
        <path d="M26.228,96.958C26.228,121.043 39.242,144.157 60.219,157.364L60.996,157.753L61.579,156.976C61.773,156.782 61.773,156.587 61.773,156.393C61.773,156.005 61.384,155.422 61.19,155.228L60.024,154.063C55.558,149.207 54.586,144.545 54.586,141.049C54.586,136.97 55.946,134.445 56.14,134.251L56.334,133.474L55.946,132.891C47.205,122.986 42.544,110.554 42.544,96.958C42.544,67.047 66.629,42.768 96.735,42.768C105.086,42.768 113.05,44.71 120.431,48.206L121.208,48.595L132.085,36.164L130.919,35.387C120.625,29.754 108.777,26.647 96.735,26.647C57.888,26.647 26.228,58.307 26.228,96.958ZM28.559,96.958C28.559,59.472 59.054,28.978 96.735,28.978C107.806,28.978 118.683,31.697 128.588,36.747C127.034,38.495 121.402,44.904 120.625,45.876C113.05,42.379 105.086,40.437 96.735,40.437C65.463,40.437 40.213,65.882 40.213,96.958C40.213,110.943 44.875,123.762 53.809,133.862C53.226,135.028 52.256,137.553 52.256,141.049C52.256,143.768 53.033,147.265 54.975,150.761C38.465,137.747 28.559,117.741 28.559,96.958Z" style="fill:rgb(17,131,118);"/>
        <path d="M26.228,96.958C26.228,121.043 39.242,144.157 60.219,157.364L60.996,157.753L61.579,156.976C61.773,156.782 61.773,156.587 61.773,156.393C61.773,156.005 61.384,155.422 61.19,155.228L60.024,154.063C55.558,149.207 54.586,144.545 54.586,141.049C54.586,136.97 55.946,134.445 56.14,134.251L56.334,133.474L55.946,132.891C47.205,122.986 42.544,110.554 42.544,96.958C42.544,67.047 66.629,42.768 96.735,42.768C105.086,42.768 113.05,44.71 120.431,48.206L121.208,48.595L132.085,36.164L130.919,35.387C120.625,29.754 108.777,26.647 96.735,26.647C57.888,26.647 26.228,58.307 26.228,96.958ZM28.559,96.958C28.559,59.472 59.054,28.978 96.735,28.978C107.806,28.978 118.683,31.697 128.588,36.747C127.034,38.495 121.402,44.904 120.625,45.876C113.05,42.379 105.086,40.437 96.735,40.437C65.463,40.437 40.213,65.882 40.213,96.958C40.213,110.943 44.875,123.762 53.809,133.862C53.226,135.028 52.256,137.553 52.256,141.049C52.256,143.768 53.033,147.265 54.975,150.761C38.465,137.747 28.559,117.741 28.559,96.958Z" style="fill:none;stroke:rgb(17,131,118);stroke-width:1.08px;"/>
        <path d="M121.402,46.264C113.633,42.379 105.28,40.437 96.735,40.437C65.463,40.437 40.213,65.882 40.213,96.958C40.213,111.137 45.069,124.151 54.198,134.445L55.169,135.416L59.442,129.007L59.248,128.618L58.277,128.618C58.471,128.424 58.471,128.035 58.665,127.841C58.277,127.453 57.888,127.064 57.694,126.676C57.305,127.259 56.917,127.647 56.723,127.841C55.946,127.064 53.615,124.345 53.615,121.237C53.615,121.043 53.809,121.043 53.809,120.849C49.73,113.857 47.594,105.893 47.594,96.958C47.594,69.96 69.542,48.012 96.735,48.012C103.338,48.012 109.748,49.372 115.769,51.897C116.352,51.12 116.935,50.732 117.711,50.343C111.108,47.235 104.115,45.681 96.735,45.681C68.377,45.681 45.457,68.795 45.457,96.958C45.457,109.389 49.148,120.072 56.723,129.201C56.334,129.784 55.558,130.755 54.975,131.726C46.817,122.209 42.544,110.166 42.544,96.958C42.544,67.047 66.629,42.768 96.735,42.768C104.503,42.768 112.273,44.516 119.46,47.818C119.071,48.401 118.877,48.983 118.488,49.76C119.265,49.372 119.848,48.983 120.042,48.983C120.042,49.76 120.042,51.509 119.071,53.451L119.265,53.451L122.373,46.652L121.402,46.264Z" style="fill:rgb(17,131,118);"/>
        <path d="M121.402,46.264C113.633,42.379 105.28,40.437 96.735,40.437C65.463,40.437 40.213,65.882 40.213,96.958C40.213,111.137 45.069,124.151 54.198,134.445L55.169,135.416L59.442,129.007L59.248,128.618L58.277,128.618C58.471,128.424 58.471,128.035 58.665,127.841C58.277,127.453 57.888,127.064 57.694,126.676C57.305,127.259 56.917,127.647 56.723,127.841C55.946,127.064 53.615,124.345 53.615,121.237C53.615,121.043 53.809,121.043 53.809,120.849C49.73,113.857 47.594,105.893 47.594,96.958C47.594,69.96 69.542,48.012 96.735,48.012C103.338,48.012 109.748,49.372 115.769,51.897C116.352,51.12 116.935,50.732 117.711,50.343C111.108,47.235 104.115,45.681 96.735,45.681C68.377,45.681 45.457,68.795 45.457,96.958C45.457,109.389 49.148,120.072 56.723,129.201C56.334,129.784 55.558,130.755 54.975,131.726C46.817,122.209 42.544,110.166 42.544,96.958C42.544,67.047 66.629,42.768 96.735,42.768C104.503,42.768 112.273,44.516 119.46,47.818C119.071,48.401 118.877,48.983 118.488,49.76C119.265,49.372 119.848,48.983 120.042,48.983C120.042,49.76 120.042,51.509 119.071,53.451L119.265,53.451L122.373,46.652L121.402,46.264Z" style="fill:none;stroke:rgb(17,131,118);stroke-width:1.08px;"/>
        <path d="M120.819,35.193L115.381,41.991C115.963,42.185 116.352,42.379 116.935,42.574L122.373,35.776C121.79,35.581 121.402,35.387 120.819,35.193Z" style="fill:rgb(17,131,118);"/>
        <path d="M120.819,35.193L115.381,41.991C115.963,42.185 116.352,42.379 116.935,42.574L122.373,35.776C121.79,35.581 121.402,35.387 120.819,35.193Z" style="fill:none;stroke:rgb(17,131,118);stroke-width:1.08px;"/>
        <path d="M110.331,32.085L107.223,39.66C107.611,39.854 108.194,40.049 108.777,40.049L111.885,32.279C111.302,32.279 110.719,32.085 110.331,32.085Z" style="fill:rgb(17,131,118);"/>
        <path d="M110.331,32.085L107.223,39.66C107.611,39.854 108.194,40.049 108.777,40.049L111.885,32.279C111.302,32.279 110.719,32.085 110.331,32.085Z" style="fill:none;stroke:rgb(17,131,118);stroke-width:1.08px;"/>
        <path d="M97.705,30.531L96.929,38.883L98.482,38.883L99.259,30.726C98.677,30.531 98.288,30.531 97.705,30.531Z" style="fill:rgb(17,131,118);"/>
        <path d="M97.705,30.531L96.929,38.883L98.482,38.883L99.259,30.726C98.677,30.531 98.288,30.531 97.705,30.531Z" style="fill:none;stroke:rgb(17,131,118);stroke-width:1.08px;"/>
        <path d="M85.469,31.503L87.023,39.66C87.606,39.466 87.994,39.466 88.577,39.466L87.023,31.308C86.44,31.308 86.052,31.503 85.469,31.503Z" style="fill:rgb(17,131,118);"/>
        <path d="M85.469,31.503L87.023,39.66C87.606,39.466 87.994,39.466 88.577,39.466L87.023,31.308C86.44,31.308 86.052,31.503 85.469,31.503Z" style="fill:none;stroke:rgb(17,131,118);stroke-width:1.08px;"/>
        <path d="M73.621,34.61L77.311,42.185C77.7,41.991 78.282,41.797 78.671,41.603L74.981,34.222C74.592,34.416 74.009,34.61 73.621,34.61Z" style="fill:rgb(17,131,118);"/>
        <path d="M73.621,34.61L77.311,42.185C77.7,41.991 78.282,41.797 78.671,41.603L74.981,34.222C74.592,34.416 74.009,34.61 73.621,34.61Z" style="fill:none;stroke:rgb(17,131,118);stroke-width:1.08px;"/>
        <path d="M62.356,40.243L67.794,46.458C68.182,46.264 68.765,45.876 69.154,45.681L63.521,39.466C63.132,39.66 62.744,39.854 62.356,40.243Z" style="fill:rgb(17,131,118);"/>
        <path d="M62.356,40.243L67.794,46.458C68.182,46.264 68.765,45.876 69.154,45.681L63.521,39.466C63.132,39.66 62.744,39.854 62.356,40.243Z" style="fill:none;stroke:rgb(17,131,118);stroke-width:1.08px;"/>
        <path d="M52.061,47.818L59.054,52.674C59.442,52.285 59.831,52.091 60.219,51.702L53.226,46.847C52.838,47.235 52.45,47.429 52.061,47.818Z" style="fill:rgb(17,131,118);"/>
        <path d="M52.061,47.818L59.054,52.674C59.442,52.285 59.831,52.091 60.219,51.702L53.226,46.847C52.838,47.235 52.45,47.429 52.061,47.818Z" style="fill:none;stroke:rgb(17,131,118);stroke-width:1.08px;"/>
        <path d="M43.321,57.53L51.479,60.637C51.673,60.054 52.061,59.666 52.45,59.277L44.292,56.17C43.904,56.558 43.709,56.947 43.321,57.53Z" style="fill:rgb(17,131,118);"/>
        <path d="M43.321,57.53L51.479,60.637C51.673,60.054 52.061,59.666 52.45,59.277L44.292,56.17C43.904,56.558 43.709,56.947 43.321,57.53Z" style="fill:none;stroke:rgb(17,131,118);stroke-width:1.08px;"/>
        <path d="M36.523,68.601L45.263,69.766C45.651,69.378 45.846,68.795 46.04,68.407L37.3,67.241C37.105,67.629 36.911,68.018 36.523,68.601Z" style="fill:rgb(17,131,118);"/>
        <path d="M36.523,68.601L45.263,69.766C45.651,69.378 45.846,68.795 46.04,68.407L37.3,67.241C37.105,67.629 36.911,68.018 36.523,68.601Z" style="fill:none;stroke:rgb(17,131,118);stroke-width:1.08px;"/>
        <path d="M32.25,80.837L40.99,80.06C41.184,79.478 41.378,78.895 41.378,78.507L32.638,79.283C32.444,79.866 32.25,80.449 32.25,80.837Z" style="fill:rgb(17,131,118);"/>
        <path d="M32.25,80.837L40.99,80.06C41.184,79.478 41.378,78.895 41.378,78.507L32.638,79.283C32.444,79.866 32.25,80.449 32.25,80.837Z" style="fill:none;stroke:rgb(17,131,118);stroke-width:1.08px;"/>
        <path d="M30.307,93.656L38.853,90.743C38.853,90.16 38.853,89.772 39.048,89.189L30.307,92.103L30.307,93.656Z" style="fill:rgb(17,131,118);"/>
        <path d="M30.307,93.656L38.853,90.743C38.853,90.16 38.853,89.772 39.048,89.189L30.307,92.103L30.307,93.656Z" style="fill:none;stroke:rgb(17,131,118);stroke-width:1.08px;"/>
        <path d="M30.89,106.67L38.659,101.62L38.659,99.872L30.696,105.116C30.696,105.699 30.89,106.282 30.89,106.67Z" style="fill:rgb(17,131,118);"/>
        <path d="M30.89,106.67L38.659,101.62L38.659,99.872L30.696,105.116C30.696,105.699 30.89,106.282 30.89,106.67Z" style="fill:none;stroke:rgb(17,131,118);stroke-width:1.08px;"/>
        <path d="M34.192,119.295L40.407,112.497C40.407,111.914 40.213,111.331 40.019,110.749L33.803,117.741C33.803,118.324 33.998,118.906 34.192,119.295Z" style="fill:rgb(17,131,118);"/>
        <path d="M34.192,119.295L40.407,112.497C40.407,111.914 40.213,111.331 40.019,110.749L33.803,117.741C33.803,118.324 33.998,118.906 34.192,119.295Z" style="fill:none;stroke:rgb(17,131,118);stroke-width:1.08px;"/>
        <path d="M40.213,131.532L44.486,123.18C44.292,122.597 44.098,122.014 43.709,121.432L39.242,129.978C39.436,130.561 39.825,130.949 40.213,131.532Z" style="fill:rgb(17,131,118);"/>
        <path d="M40.213,131.532L44.486,123.18C44.292,122.597 44.098,122.014 43.709,121.432L39.242,129.978C39.436,130.561 39.825,130.949 40.213,131.532Z" style="fill:none;stroke:rgb(17,131,118);stroke-width:1.08px;"/>
        <path d="M47.594,141.632L49.925,131.92C49.73,131.337 49.148,130.755 48.953,130.366L46.428,140.272C46.817,140.66 47.205,141.243 47.594,141.632Z" style="fill:rgb(17,131,118);"/>
        <path d="M47.594,141.632L49.925,131.92C49.73,131.337 49.148,130.755 48.953,130.366L46.428,140.272C46.817,140.66 47.205,141.243 47.594,141.632Z" style="fill:none;stroke:rgb(17,131,118);stroke-width:1.08px;"/>
        <path d="M119.848,53.839C120.042,54.228 120.236,54.228 120.431,54.422C120.625,54.228 120.819,54.228 121.013,54.228C121.208,54.033 121.402,54.033 121.596,53.839C121.013,53.645 120.625,53.256 120.236,52.868C120.042,53.256 120.042,53.645 119.848,53.839Z" style="fill:rgb(17,131,118);"/>
        <path d="M119.848,53.839C120.042,54.228 120.236,54.228 120.431,54.422C120.625,54.228 120.819,54.228 121.013,54.228C121.208,54.033 121.402,54.033 121.596,53.839C121.013,53.645 120.625,53.256 120.236,52.868C120.042,53.256 120.042,53.645 119.848,53.839Z" style="fill:none;stroke:rgb(17,131,118);stroke-width:1.08px;"/>
    </g>
</svg>
