<?xml version="1.0" standalone="no"?>
<!DOCTYPE svg PUBLIC "-//W3C//DTD SVG 20010904//EN"
 "http://www.w3.org/TR/2001/REC-SVG-20010904/DTD/svg10.dtd">
<svg version="1.0" xmlns="http://www.w3.org/2000/svg"
 width="316.000000pt" height="316.000000pt" viewBox="0 0 316.000000 316.000000"
 preserveAspectRatio="xMidYMid meet">

<g transform="translate(0.000000,316.000000) scale(0.100000,-0.100000)"
fill="#000000" stroke="none">
<path d="M1425 3150 c-266 -30 -508 -117 -725 -261 -124 -83 -332 -290 -419
-417 -81 -120 -172 -310 -210 -439 -78 -266 -84 -572 -15 -842 132 -520 523
-938 1036 -1105 182 -60 258 -71 488 -71 226 0 306 11 480 67 477 153 856 527
1016 1003 36 107 69 284 78 419 7 102 -9 292 -34 408 -120 551 -515 990 -1050
1168 -181 60 -462 90 -645 70z m296 -100 c352 -36 643 -174 894 -425 265 -264
405 -564 436 -933 31 -386 -99 -777 -360 -1080 -215 -250 -554 -436 -886 -488
-134 -20 -398 -15 -515 11 -589 129 -1028 567 -1156 1155 -27 120 -27 458 -1
579 65 300 193 538 407 752 200 201 419 326 690 393 170 42 319 53 491 36z"/>
<path d="M1380 2996 c-542 -84 -968 -436 -1149 -948 -74 -211 -96 -492 -57
-713 107 -597 568 -1054 1171 -1162 119 -21 351 -21 470 0 215 39 428 126 597
247 103 73 263 235 337 340 322 456 344 1075 57 1554 -206 343 -542 584 -931
666 -128 27 -374 35 -495 16z m485 -41 c412 -85 781 -369 972 -748 48 -96 108
-284 127 -396 9 -53 16 -152 16 -225 0 -228 -41 -410 -139 -611 -194 -400
-543 -671 -984 -767 -146 -31 -408 -31 -554 0 -273 59 -490 173 -686 362 -128
122 -213 236 -287 385 -73 147 -104 244 -132 400 -28 162 -21 378 16 538 125
537 546 949 1083 1062 162 35 402 34 568 0z"/>
<path d="M1848 2808 c-9 -7 -19 -30 -22 -50 -8 -42 -17 -45 -68 -24 -44 19
-60 8 -56 -35 3 -29 7 -34 41 -42 45 -11 47 -27 6 -61 -21 -18 -42 -26 -70
-26 -21 0 -39 -3 -39 -7 0 -5 16 -19 35 -32 l35 -24 41 28 c22 16 45 37 50 47
5 10 13 18 18 18 4 0 22 -38 40 -85 18 -47 40 -89 50 -94 28 -16 121 -25 121
-13 0 6 -8 13 -19 17 -49 15 -133 136 -143 204 -3 23 2 26 52 35 45 9 55 15
55 31 0 16 -8 21 -38 23 -37 3 -38 4 -32 33 5 22 2 36 -11 50 -20 22 -25 23
-46 7z"/>
<path d="M1185 2747 c-3 -7 7 -40 24 -73 59 -120 63 -135 44 -150 -25 -19 -41
-17 -48 5 -3 10 -15 26 -25 36 -31 28 -44 7 -25 -38 8 -20 15 -48 15 -61 0
-24 24 -46 50 -46 6 0 16 11 22 25 6 14 28 35 47 47 20 12 49 35 64 52 18 20
30 27 33 19 3 -7 14 -23 24 -35 l18 -23 12 26 c9 20 9 39 1 80 -14 63 -25 79
-58 79 -23 0 -24 -2 -18 -39 5 -33 3 -41 -16 -55 -30 -21 -37 -13 -75 82 -26
67 -34 77 -57 80 -16 2 -29 -2 -32 -11z"/>
<path d="M816 2532 c-25 -49 -40 -55 -66 -27 -26 27 -49 32 -68 13 -20 -20
-14 -39 24 -72 34 -30 35 -32 23 -66 -6 -19 -18 -42 -25 -51 -19 -22 -18 -34
10 -77 36 -57 116 -77 116 -29 1 12 7 33 14 46 l13 24 74 -70 c66 -63 106 -93
123 -93 3 0 6 9 6 20 0 11 -33 56 -72 101 -101 112 -97 103 -70 149 l22 40
-20 20 c-13 13 -20 33 -20 60 0 39 -1 40 -35 40 -28 0 -37 -5 -49 -28z m36
-77 c9 -20 9 -28 -1 -38 -18 -18 -56 29 -40 49 17 20 28 17 41 -11z m-55 -142
c-16 -16 -18 -16 -33 -1 -13 13 -14 20 -4 38 l12 22 21 -21 c20 -20 20 -22 4
-38z"/>
<path d="M2266 2466 c-41 -64 -50 -71 -69 -51 -9 8 -20 15 -24 15 -16 0 -73
-65 -73 -83 0 -23 16 -21 65 8 l42 24 44 -20 c119 -54 167 -84 156 -95 -3 -3
-19 3 -36 15 -44 32 -112 61 -143 61 -34 0 -36 -15 -5 -31 12 -7 22 -11 22
-10 0 2 12 0 28 -4 33 -9 36 -25 4 -25 -13 0 -27 -4 -33 -10 -6 -6 -25 2 -53
20 -46 31 -61 36 -61 21 0 -25 16 -44 51 -62 42 -21 50 -42 22 -58 -13 -7 -25
-4 -47 12 l-29 21 6 -25 c4 -13 7 -34 7 -45 0 -12 7 -25 16 -28 21 -8 84 20
101 44 19 26 31 25 64 -6 15 -14 32 -23 38 -20 22 14 10 44 -24 65 -19 11 -35
25 -35 31 0 19 90 11 121 -11 39 -27 63 -19 55 19 -4 15 -14 32 -22 38 -22 17
-18 24 31 45 55 24 60 51 14 75 l-32 16 7 -27 c5 -20 3 -26 -6 -23 -7 3 -14
16 -16 29 -2 19 4 28 23 37 25 12 33 36 15 47 -5 3 -18 0 -28 -6 -15 -10 -23
-7 -47 15 -15 14 -33 26 -39 26 -10 0 -69 -69 -98 -114 -4 -6 -10 -8 -13 -4
-4 3 7 25 24 49 32 43 38 64 21 74 -5 3 -25 -19 -44 -49z m134 -4 c0 -13 -23
-32 -39 -32 -11 0 -10 4 4 20 19 21 35 26 35 12z m-57 -83 c-7 -7 -20 -8 -30
-5 -17 7 -17 8 1 22 23 17 48 2 29 -17z m102 -19 c3 -5 2 -10 -4 -10 -5 0 -13
5 -16 10 -3 6 -2 10 4 10 5 0 13 -4 16 -10z"/>
<path d="M1503 2250 c-97 -21 -204 -104 -249 -195 l-26 -53 -72 -16 c-268 -60
-427 -336 -346 -599 51 -165 210 -305 367 -324 48 -5 49 -6 82 -69 37 -72 87
-121 163 -161 48 -26 62 -28 158 -28 90 0 112 3 153 24 72 36 140 102 173 170
28 58 29 59 78 65 27 3 83 21 123 40 99 47 172 121 220 223 33 68 38 88 41
171 5 116 -15 198 -68 280 -77 119 -190 193 -332 217 -32 5 -40 12 -57 50 -30
67 -111 148 -181 179 -65 30 -160 40 -227 26z m157 -66 c102 -30 182 -108 211
-204 11 -35 12 -36 85 -48 143 -22 253 -102 316 -229 31 -64 33 -73 33 -178 0
-100 -3 -115 -28 -166 -69 -142 -213 -239 -353 -239 -40 0 -43 -2 -49 -32 -18
-84 -108 -184 -192 -212 -60 -21 -147 -20 -209 1 -72 24 -156 112 -180 186
l-18 57 -43 0 c-24 0 -71 9 -105 21 -114 38 -188 106 -242 219 -29 60 -31 73
-31 170 0 93 3 111 27 163 59 125 183 217 323 239 75 13 75 13 85 49 31 116
161 213 291 218 14 1 50 -6 79 -15z"/>
<path d="M1510 2151 c-103 -32 -170 -108 -194 -222 -5 -24 -11 -26 -73 -32
-164 -14 -278 -99 -334 -246 -30 -80 -24 -205 14 -283 60 -122 173 -198 308
-206 l78 -5 11 -50 c27 -127 128 -209 260 -210 81 -1 141 26 199 88 35 38 71
119 71 161 0 7 27 13 79 16 271 16 427 299 298 541 -60 114 -169 182 -309 194
l-66 6 -12 46 c-24 96 -84 166 -171 196 -44 16 -117 18 -159 6z m176 -35 c79
-37 144 -133 144 -215 0 -25 2 -26 70 -28 125 -3 226 -55 288 -149 43 -63 41
-74 -8 -74 -70 0 -140 -49 -163 -112 -6 -16 -23 -18 -167 -18 -136 0 -160 -2
-160 -15 0 -13 24 -15 155 -15 97 0 155 -4 155 -10 0 -6 -58 -10 -155 -10 -97
0 -155 -4 -155 -10 0 -5 26 -10 58 -10 56 -1 57 -1 36 -18 -39 -33 -44 -56
-44 -196 0 -129 -1 -136 -20 -136 -19 0 -20 7 -20 110 0 67 4 110 10 110 6 0
10 5 10 10 0 6 -16 10 -35 8 -31 -2 -35 -5 -35 -30 0 -15 -3 -28 -7 -28 -18 1
-43 29 -38 42 4 11 -2 14 -25 14 -24 0 -29 -3 -25 -17 4 -11 -1 -22 -14 -28
-29 -16 -33 -14 -29 15 3 24 -1 27 -34 31 -22 2 -38 -1 -38 -7 0 -5 5 -10 10
-10 6 0 10 -43 10 -110 0 -103 -1 -110 -20 -110 -19 0 -20 7 -20 136 0 140 -5
163 -44 196 -21 17 -20 17 37 18 31 0 57 5 57 10 0 6 -58 10 -155 10 -97 0
-155 4 -155 10 0 6 58 10 155 10 131 0 155 2 155 15 0 13 -24 15 -157 15
l-158 1 -27 44 c-31 52 -89 85 -148 85 -49 0 -51 11 -10 72 58 88 159 143 280
154 l76 6 13 59 c32 158 201 243 347 175z m-386 -674 c0 -4 -9 -13 -20 -20
-17 -10 -26 -10 -50 3 -17 9 -30 18 -30 20 0 3 23 5 50 5 28 0 50 -3 50 -8z
m660 3 c0 -2 -13 -11 -30 -20 -27 -14 -32 -14 -55 1 -14 9 -25 18 -25 20 0 2
25 4 55 4 30 0 55 -2 55 -5z m-580 -45 c15 -15 20 -33 20 -70 l0 -50 -45 0
c-42 0 -45 2 -45 25 0 15 -7 40 -16 56 -12 24 -13 34 -3 45 17 20 66 17 89 -6z
m485 6 c18 -13 18 -15 2 -49 -9 -19 -17 -44 -17 -56 0 -18 -6 -21 -45 -21
l-45 0 0 48 c0 76 53 116 105 78z m-241 -137 c24 -19 26 -26 26 -95 l0 -75
-67 3 -68 3 0 73 c0 65 3 76 24 93 30 24 52 24 85 -2z m-224 -89 c0 -73 -2
-80 -20 -80 -18 0 -20 7 -20 61 0 33 -5 69 -10 80 -10 17 -7 19 20 19 l30 0 0
-80z m410 61 c-5 -11 -10 -47 -10 -80 0 -54 -2 -61 -20 -61 -18 0 -20 7 -20
80 l0 80 30 0 c27 0 30 -2 20 -19z m0 -169 c0 -4 -13 -28 -28 -53 -42 -65
-117 -104 -202 -104 -72 1 -114 18 -168 69 -30 27 -62 75 -62 91 0 3 104 5
230 5 127 0 230 -4 230 -8z"/>
<path d="M1555 1994 c-17 -19 -22 -31 -15 -39 14 -16 -10 -65 -32 -65 -10 0
-18 -7 -18 -15 0 -9 -7 -18 -15 -21 -8 -4 -12 -10 -9 -15 7 -13 234 -12 234 1
0 6 -4 10 -10 10 -5 0 -10 9 -10 20 0 15 -7 20 -25 20 -18 0 -25 5 -25 20 0
11 -4 20 -10 20 -5 0 -10 -9 -10 -20 0 -11 -4 -20 -10 -20 -17 0 -11 30 10 52
19 21 19 21 -1 49 -11 16 -23 29 -25 29 -3 0 -16 -12 -29 -26z m15 -84 c0 -11
-4 -20 -10 -20 -5 0 -10 9 -10 20 0 11 5 20 10 20 6 0 10 -9 10 -20z"/>
<path d="M1490 1803 c-1 -5 0 -95 0 -201 1 -164 -1 -193 -15 -198 -8 -3 -15
-17 -15 -30 0 -24 0 -24 120 -24 l120 0 0 24 c0 13 -5 26 -12 28 -9 3 -12 57
-13 204 l0 199 -27 3 c-27 3 -27 3 -30 -64 l-3 -68 -35 0 -35 0 -3 67 c-3 64
-4 67 -27 67 -14 0 -25 -3 -25 -7z m113 -147 c14 -11 17 -29 17 -100 l0 -86
-40 0 -40 0 0 86 c0 71 3 89 18 100 21 16 23 16 45 0z m17 -231 c0 -22 -4 -25
-34 -25 -37 0 -51 12 -42 35 3 9 19 15 41 15 31 0 35 -3 35 -25z"/>
<path d="M1570 1560 c0 -27 5 -50 10 -50 6 0 10 23 10 50 0 28 -4 50 -10 50
-5 0 -10 -22 -10 -50z"/>
<path d="M1567 1764 c-14 -15 -6 -34 14 -34 14 0 19 5 17 17 -3 18 -20 27 -31
17z"/>
<path d="M1461 1014 c-9 -20 -9 -25 0 -22 14 5 32 48 20 48 -4 0 -13 -12 -20
-26z"/>
<path d="M1510 1026 c0 -8 8 -17 18 -19 13 -4 11 -5 -5 -6 -24 -1 -33 -21 -10
-21 19 0 34 13 41 38 6 19 4 22 -18 22 -16 0 -26 -6 -26 -14z"/>
<path d="M1580 1030 c0 -5 7 -7 15 -4 8 4 15 1 15 -6 0 -6 5 -8 10 -5 6 4 8
11 5 16 -8 12 -45 12 -45 -1z"/>
<path d="M1656 1025 c-4 -11 3 -19 21 -26 33 -12 39 -6 16 20 -21 25 -29 26
-37 6z"/>
<path d="M1586 1001 c-3 -5 3 -11 14 -14 24 -6 36 8 14 17 -20 8 -22 8 -28 -3z"/>
<path d="M418 1984 c-37 -73 -14 -134 50 -134 23 0 42 11 76 45 51 50 70 55
86 24 16 -28 -10 -65 -53 -78 -17 -5 -24 -10 -15 -10 9 -1 23 -3 30 -6 15 -6
58 60 58 89 0 23 -45 66 -69 66 -11 0 -43 -21 -72 -46 -61 -54 -92 -57 -97 -8
-2 25 3 37 24 53 15 11 36 21 48 22 19 1 18 2 -4 9 -40 13 -44 11 -62 -26z"/>
<path d="M2528 1984 c3 -17 7 -22 12 -14 6 10 19 10 61 0 30 -7 58 -15 62 -17
13 -7 -75 -94 -89 -89 -9 3 -9 -5 -1 -32 6 -20 12 -38 13 -40 1 -2 28 24 59
57 56 58 113 89 138 74 9 -5 3 55 -7 64 -1 2 -23 -4 -47 -13 -40 -14 -49 -14
-109 2 -36 9 -72 21 -81 25 -13 7 -15 3 -11 -17z"/>
<path d="M392 1788 c-26 -13 -47 -75 -38 -112 9 -37 42 -54 126 -66 75 -11 97
-20 86 -38 -8 -14 -197 -24 -213 -11 -10 9 -13 6 -13 -16 0 -21 3 -25 13 -17
7 6 51 14 98 17 l84 6 -95 -90 -95 -90 113 6 c92 5 116 3 123 -8 6 -10 9 -3 9
21 -1 29 -2 32 -11 18 -8 -14 -23 -18 -72 -18 l-62 1 67 62 c65 61 66 63 70
119 4 44 2 55 -7 48 -8 -7 -39 -7 -91 0 -64 9 -83 16 -102 36 -16 18 -21 33
-16 47 8 28 34 48 53 43 9 -3 47 -8 84 -12 38 -3 74 -13 83 -21 12 -13 14 -11
14 15 0 17 2 36 5 44 4 9 -6 13 -37 13 -24 0 -68 3 -98 7 -34 4 -64 3 -78 -4z"/>
<path d="M2607 1763 c-11 -3 -16 -11 -13 -21 2 -9 7 -44 11 -77 10 -100 15
-115 36 -115 24 0 24 5 -1 30 -33 33 -25 48 28 56 26 4 77 8 115 8 51 1 66 4
62 14 -3 8 -5 27 -5 44 0 25 -3 28 -14 19 -14 -12 -202 -41 -211 -33 -13 13
-3 52 17 66 22 16 13 19 -25 9z"/>
<path d="M2600 1474 c0 -37 3 -45 12 -36 8 8 47 12 108 12 61 0 100 -4 108
-12 9 -9 12 -3 12 28 l0 39 -106 -3 c-71 -2 -110 1 -120 9 -12 10 -14 4 -14
-37z"/>
<path d="M2594 1381 c3 -4 -1 -17 -9 -27 -8 -10 -15 -30 -15 -44 -1 -72 77
-96 127 -38 64 73 77 80 101 56 29 -29 -8 -98 -52 -98 -9 0 -14 -4 -11 -10 3
-5 20 -10 37 -10 17 0 29 3 25 6 -3 4 0 19 8 35 21 39 19 72 -6 103 -29 37
-69 35 -106 -6 -78 -87 -85 -90 -107 -56 -14 23 7 66 39 78 34 13 32 20 -6 20
-16 0 -28 -4 -25 -9z"/>
<path d="M601 1281 c-1 -7 -24 -42 -53 -77 -49 -61 -103 -94 -128 -79 -14 9
-12 -3 10 -50 10 -22 19 -34 19 -28 2 27 62 46 128 39 35 -4 74 -11 88 -16 27
-10 33 2 15 30 -8 12 -10 12 -10 1 0 -11 -12 -12 -56 -7 -31 4 -61 9 -66 12
-9 6 55 86 76 94 11 4 10 14 -5 50 -10 25 -18 39 -18 31z"/>
<path d="M2556 1192 c-13 -15 -66 -134 -66 -149 0 -3 5 -1 10 2 6 4 53 -10
105 -30 79 -30 95 -40 95 -58 1 -18 3 -17 14 9 25 57 28 74 14 69 -16 -7 -88
21 -88 34 0 5 21 14 48 21 75 19 86 26 99 59 9 25 9 30 0 23 -12 -9 -95 -32
-116 -32 -6 0 -11 8 -11 18 0 46 -72 69 -104 34z m66 -49 c20 -18 23 -40 9
-62 -8 -12 -16 -12 -55 3 -48 19 -52 25 -36 57 13 24 57 25 82 2z"/>
<path d="M605 1000 c-60 -10 -118 -16 -128 -13 -18 5 -18 4 -1 -22 13 -19 19
-23 23 -14 5 16 21 29 38 29 7 0 23 -16 37 -36 23 -34 24 -38 9 -61 -9 -13
-22 -22 -29 -19 -7 3 -1 -15 14 -40 19 -32 28 -40 31 -27 2 9 32 61 67 115 65
101 70 109 57 107 -5 -1 -57 -9 -118 -19z m36 -27 c-5 -10 -16 -26 -23 -37
-14 -17 -15 -17 -32 8 -22 34 -14 46 30 46 30 0 33 -2 25 -17z"/>
<path d="M2424 958 c-26 -35 -61 -78 -78 -97 -17 -19 -26 -31 -20 -28 17 10
30 -10 48 -72 25 -86 24 -87 -54 -45 -38 21 -70 45 -70 53 0 10 -8 7 -27 -11
-16 -14 -52 -38 -82 -54 -29 -15 -48 -30 -42 -32 12 -4 111 -174 111 -191 0
-7 15 -4 40 9 22 11 40 23 40 26 0 3 -4 3 -9 0 -12 -8 -33 20 -81 108 -35 63
-40 80 -29 87 20 13 16 14 132 -46 58 -30 110 -55 115 -55 5 0 -6 53 -24 118
-33 116 -35 159 -8 148 7 -3 48 -31 90 -62 56 -43 74 -62 71 -76 -8 -27 -2
-23 39 35 20 28 48 66 61 83 l23 31 -23 21 -22 21 3 -37 c3 -26 -2 -45 -15
-61 -21 -26 -42 -24 -82 9 -19 16 -21 23 -11 35 9 10 18 12 38 4 l27 -9 -30
25 c-36 31 -78 55 -57 34 14 -15 16 -45 4 -53 -9 -5 -82 43 -82 54 0 4 11 19
26 35 18 19 32 26 49 23 27 -6 24 6 -5 22 -16 9 -26 1 -66 -52z"/>
<path d="M735 929 c-19 -20 -19 -20 7 -10 19 7 31 6 48 -6 22 -15 22 -16 -51
-89 -40 -40 -80 -74 -90 -76 -14 -2 -10 -11 21 -42 27 -27 37 -33 34 -20 -4
14 16 39 71 94 74 72 77 74 91 55 10 -13 13 -31 9 -50 l-5 -30 22 23 22 22
-51 52 c-28 29 -59 63 -69 76 -23 27 -36 28 -59 1z"/>
<path d="M966 709 c-33 -26 -33 -51 3 -119 32 -61 28 -90 -14 -90 -31 0 -55
35 -55 80 l0 35 -20 -33 c-23 -38 -24 -42 -7 -42 6 0 22 -11 35 -24 43 -46
113 -41 133 11 8 23 5 37 -22 89 -34 68 -33 94 4 94 32 0 51 -24 51 -65 0 -33
0 -33 15 -12 8 12 20 25 25 29 7 5 6 8 -3 8 -7 0 -29 14 -48 30 -40 35 -61 37
-97 9z"/>
<path d="M835 699 c-4 -6 -5 -11 -4 -12 2 -1 16 -13 31 -26 32 -28 59 -19 31
11 -26 29 -50 40 -58 27z"/>
<path d="M2040 649 c-20 -10 -28 -18 -18 -19 11 0 24 -19 38 -56 11 -31 19
-58 17 -60 -2 -2 -37 17 -78 42 l-74 46 -73 -18 c-52 -13 -67 -20 -54 -25 28
-11 49 -162 27 -196 -18 -26 -65 -32 -84 -9 -19 22 -40 183 -27 197 8 9 3 10
-23 5 -18 -3 -40 -6 -48 -6 -12 0 -13 -3 -5 -13 6 -7 16 -44 22 -82 14 -93 27
-124 57 -131 39 -10 97 4 117 28 16 20 17 32 10 93 -12 117 -12 120 15 120 20
0 27 -11 57 -92 29 -83 31 -94 18 -108 -19 -19 -15 -19 27 0 19 8 26 14 17 15
-10 0 -23 17 -34 48 -9 26 -23 62 -31 81 -7 19 -12 35 -11 37 2 1 52 -27 111
-62 60 -35 110 -64 112 -64 1 0 -15 48 -36 106 -37 101 -39 108 -23 125 20 22
19 22 -26 -2z"/>
<path d="M1132 642 c1 -19 -58 -170 -74 -190 -6 -7 -9 -14 -7 -16 5 -5 157
-66 164 -66 2 0 12 14 21 31 l16 31 -23 -16 c-27 -18 -62 -21 -90 -6 -23 13
-24 26 -4 75 13 29 19 34 30 25 8 -6 15 -23 17 -36 2 -20 7 -13 25 32 l22 57
-25 -23 c-35 -34 -52 -15 -31 37 12 30 20 37 38 35 31 -3 59 -30 60 -56 0 -20
1 -20 11 2 13 25 21 27 36 10 7 -9 6 -36 -4 -88 -21 -114 -23 -120 -42 -121
-19 -1 22 -16 48 -18 13 -1 13 1 1 8 -12 8 -13 22 -2 95 7 47 17 84 21 81 5
-3 34 -53 65 -110 31 -58 58 -105 60 -105 1 0 8 30 15 68 23 136 31 162 48
163 9 1 1 5 -18 9 -19 5 -37 7 -39 4 -2 -2 1 -4 7 -4 7 0 12 -12 12 -27 0 -42
-12 -103 -19 -103 -4 0 -25 34 -47 75 -29 57 -45 77 -64 81 -27 6 -94 30 -177
63 -47 18 -52 19 -51 3z"/>
</g>
</svg>
